<?xml version="1.0" encoding="UTF-8"?>
<svg id="_图层_1" data-name="图层_1" xmlns="http://www.w3.org/2000/svg" version="1.1" viewBox="0 0 800 800">
  <!-- Generator: Adobe Illustrator 30.4.0, SVG Export Plug-In . SVG Version: 2.1.4 Build 226)  -->
  <path d="M400,750c-45.584-22.138-88.0569-48.8949-124.2209-84.8109-41.141-41.073-72.861-91.569-91.8759-146.5069-16.083-46.227-23.459-95.2119-23.459-143.9289V50h479.1117v324.7533c0,48.715-7.375,97.6999-23.46,143.9289-19.014,54.94-50.7349,105.436-91.8759,146.5069-36.166,35.916-78.6379,62.6749-124.2199,84.8109Z"/>
  <path d="M400,741.643c-43.985-21.3349-84.148-47.1179-118.9789-81.7869-40.341-40.271-71.441-89.7889-90.101-143.6619-15.728-45.34-23.013-93.6119-23.013-141.4419V57.5571h464.1837v317.1952c0,47.829-7.286,96.0999-23.013,141.4419-18.661,53.8729-49.758,103.3909-90.0999,143.6619-34.834,34.671-74.9949,60.452-118.9779,81.7869Z" style="fill: #fff;"/>
  <path d="M400,725.0191c-40.075-19.468-76.6849-44.272-108.4059-75.743-38.742-38.672-68.597-86.3219-86.5459-138.0619-15.196-43.828-22.125-90.2329-22.125-136.4619V72.581h434.1517v302.1713c0,46.228-6.932,92.632-22.126,136.4619-17.9499,51.74-47.8039,99.3919-86.5449,138.0619-31.633,31.471-68.3329,56.275-108.4039,75.743Z"/>
  <path d="M523.9529,621.2731c27.9-33.161,49.758-71.4779,63.976-112.4589,14.927-43.117,21.681-88.6349,21.681-134.0609v-167.8439l-117.1119,120.8139c0-5.956.089-12.268.179-15.556,0-2.668.089-4.089-2.045-6.225-1.332-1.244-2.753-1.689-3.464-3.468-1.066-2.845-4.088-5.244-9.063-6.488,0,0-1.332.177-3.288-.267v1.333c1.69,1.067,3.555,1.867,5.331,2.845,1.246.712,2.932,2.49,3.466,3.912,1.064,2.311,2.576,3.111,4.263,4.623,1.246,1.156.979,2.402.979,3.912.089,11.29.177,22.581-.091,33.871-.266,16.625-1.154,33.248-1.954,49.873-.089,2.579-.179,5.511,1.245,7.555.8,1.157,4.089,2.936,4.089,3.823,0,.266-1.156.799-2.399,1.601-4.886,3.111-4.886,7.289-5.598,12.624-1.068,17.514-3.998,35.204-7.021,52.452-2.757,16.342-6.046,32.59-9.862,48.717-2.398,10.49-4.53,21.336-7.019,32.004-2.132,8.446-5.154,17.424-5.954,19.736l29.945,1.422c4.532.264,6.488-.623,8.619,4.265l6.932,15.469,5.153.179c4.621.178,6.042-.534,7.908,4.624l7.375,20.091c1.064,1.69,1.952,2.667,3.729.623ZM457.489,270.2953c-1.169-2.97-2.354-5.933-3.555-8.89-1.066-1.867-1.866-3.823-2.93-5.245-4-6.402-13.862-17.336-18.749-22.492-4.353-4.712-5.421-7.735-5.421-11.024,0-3.823,3.645-13.513,4.355-15.112,3.465-5.779,5.953-12.002,3.819-18.759.8-10.757-8.263-29.959-18.214-34.316l72.0639-74.4096H190.3881v294.7055c0,4.355.089,8.799.177,13.156l190.0629-196.1129c-.178,3.468-.178,7.2.443,10.58-1.689,1.066-2.753,2.845-2.753,4.799.089,3.557,2.753,4.18,5.42,5.244.088.978.888,2.668,1.422,3.912,1.333,3.023-5.421,5.245-7.375,5.868-8.975,2.133-17.594-1.067-25.68,6.045-8.531,7.468-14.039,25.515-15.817,32.715-2.309,8.979-4.355,16.002-6.664,22.936-5.154,15.291-12.441,29.605-17.505,44.983-6.398,20.448-10.396,40.806-10.751,43.384-.889,6.225,4.976,9.514,10.04,7.469-.445,4.978-.711,9.424,2.844,13.425.889.978,1.598,1.601,1.509,2.934-.177,1.778-1.154,8.355-2.22,16.624-2.844,20.537-7.465,43.562-5.954,64.0979.356,8.891,7.552,16.537,11.464,19.291,1.331,1.067,4.353,3.289,5.773,4.623l-77.9249,80.544c6.944,11.065,14.478,21.749,22.57,32.004l56.424-37.428c-1.778.533-10.93-2.667-6.486-6.577,2.667-2.49,4.887-3.113,4.887-4.358,0-1.244-3.109-2.932-3.109-6.755,0-3.645,2.753-7.113,3.109-11.114.532-4.178,1.778-14.669,2.133-16.536.622-2.754,1.066-7.111.622-9.777-.354-1.333,0-3.113.355-4.979.532-2.31,1.423-4.534,1.777-6.133,2.044-12.536-5.33-12.802-11.994-20.271-4.62-5.244-5.688-8.712-5.866-13.957-.888-23.023,4.176-47.116,7.02-69.875.357-2.668.623-5.333.889-7.822.177-1.066.354-1.778.354-1.956,0-3.111-2.931-4.8-4.264-7.912-1.155-2.754-.089-8.089.089-11.201,0-1.246-1.51-1.689-2.755-1.246-4.353,2.579-8.442,1.333-7.374-4.446,2.575-13.691,6.13-27.735,10.483-40.893,4.265-14.847,12.085-28.447,17.06-43.116,2.667-8.181,4.71-16.714,6.932-24.981,3.11-10.846,6.575-22.759,14.749-30.937,7.466-6.4,16.883-3.289,24.348-5.334,2.933-.8,10.397-3.823,10.397-8,0-2.491-1.245-3.469-1.511-4.89-.355-1.244-.711-2.934-.711-2.934-1.511-.712-6.398-1.601-4.531-3.734.8-.889,2.132-1.867,2.398-2.045-.443-5.244-.977-9.868-.177-15.112-2.044-2.045-.623-11.024,2.132-12.179,0,0,3.822-7.29,10.22-12.802,6.308-5.777,13.771-6.489,16.084-6.489,9.418,0,19.458,23.47,18.215,31.649,2.401,6.311-.887,11.378-3.644,16.891-2.043,4.712-5.153,12.802-4.621,18.046.534,5.334,3.91,9.245,7.376,13.068,6.042,6.578,12.174,13.246,17.238,20.626,0,0,.177.177.177.355,2.221,3.468,4.976,9.602,6.931,14.046.807,1.9,1.548,3.827,2.223,5.779.262-2.494.351-5.071.441-7.65ZM444.2489,363.9073c.179-.801-.18-2.045-1.245-1.868-1.421.355-1.244,1.245-.712,1.868.355.532,1.066.711,1.423.711.354-.177.534-.356.534-.711ZM437.14,363.9073c-.179-.623-.888-1.333-1.602-1.156-1.064.355-1.243.712-.886,1.156.354.711,1.777,1.423,2.309,1.066.357,0,.357-.532.179-1.066ZM429.499,363.9073c.445-.801.622-2.045.356-2.755-.888-1.333-3.821,1.067-2.844,2.755l.179.177c.885,1.069,1.777.534,2.309-.177Z" style="fill: #fff;"/>
  <path d="M423.367,363.9063c-.177-.622-.354-1.155-.886-1.689-1.332-1.422-3.646.177-4.178,1.689-.266.712-.091,1.424.355,1.956,2.312,1.867,4.709.178,4.709-1.956ZM414.214,363.9063c.268-.977.268-2.044-.177-2.754-1.246-1.333-4.176.712-5.067,2.754-.532.89-.532,1.779.179,2.491,1.689,1.51,4.178-.357,5.065-2.491ZM406.041,363.9063c0-1.689-1.954-2.754-3.998-1.332-.623.324-1.169.778-1.6,1.332-1.422,2.311.711,4.178,3.11,3.2,1.777-1.066,2.488-2.133,2.488-3.2ZM395.645,363.9063c0-1.332-1.51-2.222-4.265-.443-.177.177-.355.266-.532.443-3.287,2.491-.889,4.89,1.688,3.557,2.131-1.066,3.109-2.49,3.109-3.557ZM384.892,363.9063c-.355-.622-1.154-.8-2.932,0-.177.178-.356.178-.711.355-3.998,2.668-1.51,4.713,1.423,3.289,1.865-.798,2.755-2.754,2.22-3.644ZM374.32,363.9063c-.177-.266-.889-.443-1.6-.177-.177,0-.266,0-.445.177-1.776,1.067-.712,3.023.977,2.491,1.423-.18,1.777-1.779,1.068-2.491ZM368.276,363.9063c0-.977-.889-1.689-2.132-1.155-.712.178-1.066.712-1.244,1.155-.266,1.067.889,2.311,2.31,1.956.889-.177,1.246-1.066,1.066-1.956ZM420.526,375.7303c-.534,1.956-2.934,3.735-4.977,1.956-1.156-1.066,0-3.111,1.777-4.178,1.865-.978,3.821-.177,3.2,2.222ZM401.42,375.3753c-.798,2.668-3.998,5.868-6.042,4.001-1.42-1.156.8-4.267,3.111-5.868,2.043-1.423,3.642-.534,2.931,1.867ZM386.67,373.5083c-1.422,1.156-4.71.712-4.444-1.246.267-2.222,4.354-5.244,5.599-3.645,1.066,1.423.354,3.645-1.155,4.891ZM364.457,375.1093c.977-1.246,2.754,1.511,1.332,1.867-1.332.355-2.399-.889-1.332-1.867ZM407.729,375.1983c4.887-2.934,4.887,1.778,1.6,3.377-2.933,1.333-5.599-.711-1.6-3.377ZM387.825,375.5533c3.553-2.222,6.486,2.133,1.601,4.535-2.756,1.421-5.511-1.869-1.601-4.535ZM370.853,373.8633c2.222-.889,4.176,3.289,1.244,4.178-2.843.712-3.641-3.111-1.244-4.178ZM376.719,378.7533c-2.044-1.956,2.309-6.134,3.997-4.001,1.778,2.045-1.154,6.402-3.997,4.001ZM424.968,377.5093c-1.423-1.601,2.222-4.001,3.644-3.111,3.462,2.399-1.957,5.155-3.644,3.111ZM432.786,375.1983c0-1.51.979-2.045,1.69-1.333s.353,1.51,2.309,1.51c1.865,0,1.511,2.491.356,2.845-1.069.535-2.312.535-3.466-.354q-1.066-1.069-.889-2.668ZM441.7619,376.4423c1.421-.355,1.598,1.956.711,2.311-.89.266-3.111-1.778-.711-2.311ZM321.006,371.3753c1.066-1.155,2.577,1.601,1.245,1.956-1.245.355-2.489-.712-1.245-1.956ZM361.968,369.8633c1.066-1.246,2.666,1.51,1.422,1.867-1.422.355-2.399-.621-1.422-1.867ZM368.099,368.6193c2.4-1.067,3.466,3.111,1.509,3.645-2.042.355-3.819-2.579-1.509-3.645ZM394.845,368.4413c4.796-3.111,4.621,2.134-.178,4.533-2.844,1.424-3.821-2.045.178-4.533ZM375.386,368.9743c2.221-1.067,3.998,3.288,1.155,4-2.755.889-3.644-2.934-1.155-4ZM356.281,368.9743c0-.533.532-.89.977-.89.711,0,1.066.357,1.066.89,0,.355-.177,1.776-.711,1.776-.621.002-1.332-1.42-1.332-1.776ZM412.439,372.0853c-2.224-1.867,2.932-6.578,4.711-4.533,1.685,2.133-2.134,7.023-4.711,4.533ZM422.035,372.2623c-2.131-1.867,2.578-6.755,4.265-4.712,1.775,2.135-1.511,7.202-4.265,4.712ZM403.376,372.6193c-2.045-1.867,2.488-5.867,4.175-4,2.489,2.756-1.334,6.49-4.175,4ZM428.967,369.6853c-.18-1.956.888-1.956,1.688-1.244.887.533,1.777-1.867,3.021-1.157,1.155.8.091,4.267-1.776,4.801-1.956.534-2.579-.533-2.933-2.4ZM437.1409,369.3303c-.179-1.867.798-1.867,1.687-1.423.89.712,2.133.355,3.287,1.067,1.245.889-.711,2.933-2.044,2.754-2.13-.353-2.575-.619-2.93-2.398ZM457.576,350.2173c0,1.421.355,2.755,1.067,4.001,1.421,2.044,3.82,3.645,6.398,4,3.91.712,7.463-3.289,7.463-6.934,0-6.668-14.036-10.402-14.928-1.067ZM311.3201,354.2183c-.178.889-.178,1.421-.355,1.867-.711,4.355,1.689.712,3.287.355,1.509-.178,2.933,2.845,3.999.712.177-.712-.711-1.868-1.245-2.934-.355-.533-.532-1.067-.355-1.424.355-.8,2.132.178,2.309-.8.089-1.067-1.6-2.845-1.243-4.356.532-1.776,3.11,1.69,3.466.533.355-1.777-2.489-4.089-1.955-5.777.532-1.601,2.31,1.599,2.489,0,.355-1.69-1.601-2.934-1.245-4.712.532-1.511,2.754,2.49,3.109.889.532-1.512-1.866-3.734-1.866-5.69.532-1.956,3.999,2.401,4.176.978,0-1.156-2.489-5.511-2.132-6.4.354-1.067,2.31,1.776,2.489.532.177-1.423-1.956-3.289-1.243-4.712.532-1.246,2.931,1.067,3.286.355.622-.623-2.043-3.379-1.598-4.356.177-.889,1.243-.711,1.421-1.512.177-.889-.355-2.133-.355-2.845.266-1.067,1.955-1.244,1.601-2.754-.089-.533-.356-1.246,0-1.867.177-.444.711-.89,1.066-1.245.799-.889,0-2.224.266-3.288.177-.89,1.065-3.646,1.597-4.89.357-1.423-.177-3.823-.888-2.401-3.644,6.045-6.754,12.801-9.329,19.381-3.999,12.09-7.731,24.091-10.752,36.361ZM367.211,353.1493c-2.131-4,7.909-3.911,3.822-.355-1.334,1.333-2.577,2.668-3.822.355ZM375.386,350.2173c.711-.177,1.333.178,1.333,2.4v1.601c.177,1.776.177,2.934-.801,3.288-.711.089-1.066-.266-1.243-.8-.446-1.244-.712-6.489.711-6.489ZM378.141,348.3483c.889-.177,1.066,2.757,1.066,4.09,0,.354.177,1.066.177,1.778.178,1.422.355,2.577-.354,2.754-.446.18-.712-.443-.889-1.244-.268-1.421-.977-7.198,0-7.378ZM381.072,354.2183c-.444-1.333-.089-2.934-.356-4.356-.177-2.044-.354-2.934.533-3.111.889-.355,1.066,2.045,1.066,4,0,1.067.355,2.4.532,3.469.002,2.041-1.419,1.597-1.775-.002ZM395.022,354.2183c-.177-.355.177-.712,1.332-1.246,1.955-.799,2.489.534,1.245,1.246-.177.177-.532.177-.711.355-1.066.177-1.689,0-1.866-.355ZM403.019,354.2183c-.441-.712-.264-1.956,1.068-2.402,1.777-.711,2.666,1.156,1.954,2.402-.177.532-.534.711-1.067.889-.887.176-1.598-.179-1.955-.889ZM410.661,354.2183c-.089,0-.18-.178-.267-.355-2.309-1.867,1.865-5.69,3.644-3.646.978,1.244.446,3.112-.711,4.001-.711.532-1.6.71-2.666,0ZM423.367,354.2183c.165-.087.348-.133.534-.133s.369.046.533.133h.179c1.066.711,2.398,2.754,1.866,4-.445,1.422-1.156,1.867-2.577,1.422-1.421-.355-1.867-1.422-1.691-2.845,0-.978.445-2.045,1.156-2.577ZM384.715,343.2813c.712.089.712,1.601.712,2.222,0,1.424.179,2.668.534,3.468.177.889,1.243-.355,1.243-1.51,0-1.599-.532-3.289-.532-4.89,0-1.246.532-2.224,2.398-3.645,4.087-2.49,8.708-6.045,12.973-7.824,1.333-.711,2.931-.177,2.931,2.045,0,.8-.178,4.712.89,4.178,1.687-.623-.357-7.112,1.333-7.112.798.089,1.243,1.601,1.332,2.934.177,1.867,1.154,4.089-.8,5.245-1.333.711-6.577,3.823-10.485,6.222-1.777,1.066-3.109,1.955-3.998,2.668-2.932,2.224-5.865,4.978-7.108,6.045-1.423,1.066-1.955.711-2.133-1.333-.177-1.244-.622-4.001-.711-5.957,0-.889,0-2.933,1.421-2.756ZM432.074,344.6163c1.421-1.422,2.844,1.246,1.691,1.601-.8.355-2.755-.891-1.691-1.601ZM368.633,358.7513c0-.533.445-.89.977-.89.711,0,1.066.355,1.066.89,0,.534-.355.889-1.066.889-.534,0-.977-.357-.977-.889ZM322.7831,354.9283c.977-1.245,2.933,2.578,1.689,2.933-1.423.357-2.755-1.778-1.689-2.933ZM390.137,358.0393c4.887-2.934,4.709,1.778,1.42,3.289-3.021,1.423-5.598-.71-1.42-3.289ZM399.021,356.0833c2.665-1.69,4.711,3.2,1.601,4.533-3.023,1.246-5.6-1.865-1.601-4.533ZM407.374,356.4403c2.309-.978,3.464,3.2,1.421,3.468-1.955.532-3.821-2.402-1.421-3.468ZM414.659,357.1523c-.622-2.579,1.422-1.69,3.021-1.067,1.689.889,2.224,2.311.623,3.2-1.334.798-2.932.621-3.644-2.133ZM439.895,355.8173c1.246-.357,1.867,2.934,1.066,3.289-.89.356-3.643-2.666-1.066-3.289ZM324.292,340.9703c1.067-1.155,3.11,2.845,1.778,3.2-1.423.357-3.021-1.954-1.778-3.2ZM371.387,334.9253c0-.889,1.422-1.155,2.222-.445.445.355.534.978.534,1.867-.089,1.246-.089,2.311.177,2.934.532,1.066,1.598,1.244,1.42.177-.177-.889-.622-2.934-.445-4.266.357-2.311,4.71-2.755,6.488-2.846,2.575-.177,10.218-.889,11.64-1.421,1.244-.355,2.754.889-.356,2.399-3.553,2.668-7.819,4.446-11.284,7.378-1.423,1.158-2.933,1.158-6.043,1.513-3.197.354-4.175-.712-4.53-2.757-.179-1.954.177-3.289.177-4.533ZM409.683,331.9923c-.534-1.779-.179-3.469.711-3.469.801,0,1.865,2.757,1.865,4.533.18.89.979,2.579-.352,2.934-1.158.357-1.956-3.376-2.224-3.998ZM412.084,341.6823c0-.355.355-.889,1.068-.889.532,0,1.064.532,1.064.889,0,.534-.532.889-1.064.889-.713,0-1.068-.355-1.068-.889ZM367.743,337.3253c-.177-1.156,1.69-2.045,1.69-.444,0,1.511.354,3.289.354,4.622-.177,1.246-1.065,1.246-1.509-.712-.356-1.865-.356-2.22-.535-3.466Z" style="fill: #fff;"/>
  <path d="M422.301,329.8583c-3.766-2.457-7.588-4.829-11.463-7.112-6.306-3.645-12.794-7.377-17.415-12.001-6.042-5.69-14.395-13.512-19.103-20.268-1.332-1.956-2.223-3.735-1.066-6.134,1.245-2.311,2.843-2.4,5.064-.978.712.445,1.421,1.51,2.221-.355.889-1.956.712-3.378-.177-4.356-1.866-2.667,1.6-4.978,3.376-6.488,4.621-4.624,6.665-4.801,10.575,0,7.464,9.511,14.75,19.29,23.013,28.092,6.929,7.378,14.572,13.868,21.77,20.891,2.22,2.134,4.175,4.001,6.84,5.779.534.355.355,1.422-.177,2.133-.624.623-2.223,2.934-1.333,3.646.798.8,2.397-1.599,3.287-2.49.712-.889,2.222-2.577,4.176-3.823,1.689-1.156,3.376-3.468,5.155-4.356,1.421-.445,5.954-3.645,7.818-3.823,2.134-.177,5.065,2.311,6.485,3.646.98.532,4.089,4.267,3.646,5.067-.534,1.244-2.666-.712-3.646-2.045-1.243-1.421-4.175,0-1.954,2.045,2.134,1.956,4.355,3.289,5.241,4.178.889.889.357,2.045-1.065,1.244-1.421-.889-2.399-1.601-3.644-2.49-1.066-.623-3.11.889-1.598,2.311,1.42.978,2.665,1.867,3.642,2.756.356.355.534.533.711.889,1.068,1.067.711,2.045-.798,1.156-1.599-.801-2.667-1.156-3.821-1.69-1.244-.355-2.842,1.067-1.245,2.222,1.513,1.246,4.889,2.49,5.864,3.823.889,1.246.179,3.823-1.156,2.668-1.42-1.244-5.953-2.311-8.175-2.311-7.64,0-9.773,2.668-15.283,2.668-2.487,0-4.885-.89-8.174-3.023-5.685-3.914-11.549-7.914-17.591-11.471ZM397.067,459.3852c-2.043-.798.179-5.688,3.376-3.288,1.241.889,1.241,5.423-3.376,3.288ZM353.171,456.2742c-1.955-.799,1.332-7.112,4.443-4.623,1.421.802.178,6.934-4.443,4.623ZM379.739,456.2742c2.401-.799,1.51,3.289.977,3.289-2.043,0-3.465-2.222-.977-3.289ZM438.116,458.0512c-.177-2.932,4.533-3.289,3.999.534-.353,1.869-3.819,3.113-3.999-.534ZM429.321,459.5632c-2.132-1.866.798-7.112,4.354-3.821,2.043,1.955-1.601,6.309-4.354,3.821ZM371.919,459.2972c0-.535.533-.888.978-.888.533,0,1.066.353,1.066.888,0,.445-.532.798-1.066.798-.443,0-.978-.353-.978-.798ZM390.491,457.8752c0-.534.355-.889,1.066-.889.445,0,.978.355.978.889s-.533.887-.978.887c-.711,0-1.066-.353-1.066-.887ZM351.216,448.2732c-1.421-1.69,1.6-4.267,2.577-2.934.889,1.422-.977,4.89-2.577,2.934ZM411.017,447.6502c-1.866-.889.712-6.668,4.178-4.712,3.996,1.867.531,6.936-4.178,4.712ZM373.609,442.7602c2.488-.887,1.777,3.289,1.066,3.289-2.132.002-3.288-2.22-1.066-3.289ZM441.406,443.2952c2.488-1.067,3.022,2.754,1.067,3.113-2.044.532-3.289-2.135-1.067-3.113ZM392.535,441.6942c2.489-1.067,2.932,2.934,1.065,3.289-2.043.536-3.286-2.223-1.065-3.289ZM357.792,446.4082c-.178-2.936,4.53-3.289,3.998.532-.354,1.866-3.643,3.111-3.998-.532ZM365.434,447.9182c-2.221-1.867-.8-6.045,3.288-3.289,1.599,1.067-.623,5.779-3.288,3.289ZM420.257,446.4082c-2.045-1.956,1.422-6.757,4.888-3.468,2.044,1.865-2.132,5.866-4.888,3.468ZM429.855,445.6962c-2.134-1.867.798-6.226,4.263-2.936,2.134,1.868-1.51,5.513-4.263,2.936ZM399.466,444.2732c0-.444.354-.801.977-.801.532,0,1.066.357,1.066.801,0,.532-.534.889-1.066.889-.623,0-.977-.357-.977-.889ZM353.439,432.3602c0-.532.532-.889,1.065-.889.713,0,1.067.357,1.067.889,0,.444-.712,2.579-1.423,2.579-.532,0-.709-2.135-.709-2.579ZM377.43,436.3602c2.488-1.066,1.6,3.289,1.066,3.289-2.133,0-3.467-2.311-1.066-3.289ZM386.493,436.1812c2.22-1.065,2.932,2.756.888,3.113-1.954.534-3.377-2.133-.888-3.113ZM425.677,438.4072c-.179-2.936,4.442-3.289,3.999.532-.355,1.866-3.642,3.112-3.999-.532ZM440.605,432.9833c.978-1.155,3.821,1.956,2.399,2.311-1.242.355-3.465-1.244-2.399-2.311ZM435.897,439.6492c0-.532.534-.889,1.066-.889.533,0,.978.357.978.889,0,.533-.445.801-.978.801-.532,0-1.066-.268-1.066-.801ZM443.894,438.9392c0-.532.534-.889,1.066-.889.622,0,.978.357.978.889,0,.533-.356.889-.978.889-.532,0-1.066-.356-1.066-.889ZM395.999,438.2282c0-.535.532-.89,1.066-.89.532,0,1.066.355,1.066.89,0,.355-.534.889-1.066.889s-1.066-.534-1.066-.889ZM381.072,433.1602c0-.534.532-.8,1.066-.8.532,0,1.066.266,1.066.8,0,.533-.532.888-1.066.888-.532.002-1.066-.355-1.066-.888ZM377.607,428.1802c-2.044-.887.357-5.777,3.467-3.289,1.243.801,1.243,5.336-3.467,3.289ZM371.031,424.1803c2.398-1.065,1.689,3.288,1.066,3.288-2.132-.175-3.375-2.309-1.066-3.288ZM356.992,424.1803c2.222-1.065,1.509,3.288.8,3.288-1.866-.175-3.288-2.309-.8-3.288ZM385.782,424.1803c2.397-1.065,2.931,2.756,1.066,3.288-2.133.359-3.465-2.309-1.066-3.288ZM435.897,428.1802c-.179-3.021,9.063-3.2,4.885,1.333-1.42,1.425-4.53,2.315-4.885-1.333ZM362.145,424.9823c-.355-2.756,4.353-3.289,3.821.532-.177,2.134-3.644,3.2-3.821-.532ZM427.366,428.1802c-2.221-1.956,1.955-5.065,4.353-3.2,2.046,1.958-1.775,5.603-4.353,3.2ZM417.503,428.3592c-2.133-1.955.8-6.311,4.355-3.022,2.043,1.956-1.601,5.422-4.355,3.022ZM408.44,427.4703c-2.044-1.956.889-6.4,4.353-3.111,2.043,1.865-1.598,5.513-4.353,3.111ZM445.226,427.4703c0-.532.535-.887,1.067-.887.711,0,1.066.355,1.066.887,0,.535-.355.889-1.066.889-.532,0-1.067-.354-1.067-.889ZM400.264,424.3592c0-.532.356-.889,1.067-.889.534,0,1.066.357,1.066.889,0,.355-.532.8-1.066.8-.709,0-1.067-.445-1.067-.8ZM394.135,426.5832c-2.31-.179-2.133-4.18-.533-3.823,1.597.177,2.931,3.823.533,3.823ZM352.993,418.7583c0-.355.446-.888.978-.888s1.066.533,1.066.888c0,.534-.533.889-1.066.889-.534,0-.978-.355-.978-.889ZM379.916,414.9353c0-.533.446-.888.978-.888.533,0,1.066.355,1.066.888,0,.534-.533.891-1.066.891-.532,0-.978-.357-.978-.891ZM376.363,414.2233c0-.532.356-.799,1.067-.799.534,0,1.066.267,1.066.799,0,.357-.532.889-1.066.889-.711.002-1.067-.53-1.067-.889ZM360.636,421.0702c-1.778-.179-1.599-3.377-.178-3.022,1.155.175,2.221,3.022.178,3.022ZM390.491,420.8913c-1.778-.177-1.6-3.377-.354-3.021,1.42.178,2.398,3.021.354,3.021ZM358.147,416.1792c-2.044-.178-1.866-4.178-.355-3.821,1.6.179,3.021,4,.355,3.821ZM407.551,421.5142c-2.221,0-2.044-4.178-.532-3.821,1.598.355,3.021,3.998.532,3.821ZM438.6499,417.2472c-2.221-.179-2.044-4.179-.354-4,1.599.266,3.02,4,.354,4ZM362.856,416.0033c-1.422-1.778,1.777-4.355,2.576-2.934.889,1.333-.798,4.801-2.576,2.934ZM396.533,420.0043c-1.332-1.779,1.6-4.356,2.667-2.934.8,1.333-.891,4.801-2.667,2.934ZM434.118,408.3573c-.353-2.934,6.487-3.289,3.821.533-.976,1.691-3.642,3.113-3.821-.533ZM404.441,406.5813c0-.535.533-.89,1.066-.89.534,0,1.068.355,1.068.89,0,.532-.534.887-1.068.887-.533,0-1.066-.355-1.066-.887ZM389.603,408.3573c-1.424-1.601,1.775-4.355,2.575-2.934.889,1.333-.798,4.799-2.575,2.934ZM374.497,406.2223c2.399-.799,6.931,2.845.711,4.18-2.754.711-3.111-3.112-.711-4.18ZM366.677,406.4013c2.399-.978,6.398,3.2.712,4.18-2.755.532-2.932-3.113-.712-4.18ZM384.36,405.6013c2.489-1.065,3.199,4.446.355,5.333-2.755.712-2.575-4.533-.355-5.333ZM359.214,405.8693c2.399-.98,4.176,3.377,1.244,4.178-2.844.71-3.643-3.113-1.244-4.178ZM403.553,401.6002c-2.754.623-2.399-2.222-.975-2.222,4.262,0,2.929,1.867.975,2.222ZM395.022,402.0463c-1.776,0-1.599-3.023-.355-2.843,1.155.175,2.4,3.019.355,2.843ZM438.386,398.6673c.353-.712.976-.799,1.509-.357.712.713.178,1.603,2.044,1.603,2.132,0,1.6,2.133.534,2.667-1.067.353-2.223.533-3.466-.534-1.066-.891-1.243-2.133-.621-3.379ZM413.15,398.8443c2.397-.976,3.642,3.378.887,4.089-2.842.889-3.199-3.02-.887-4.089ZM370.676,399.5563c2.399-1.067,4.353,4.089,1.421,4.801-2.664.889-3.821-3.821-1.421-4.801ZM377.785,398.6673c2.309-.799,5.064,4.264,2.131,5.155-2.843.714-4.53-4.089-2.131-5.155ZM387.559,399.3783c2.4-.889,4.264,2.4,1.332,3.202-2.753.71-3.644-2.224-1.332-3.202ZM362.856,399.7333c2.399-1.066,4.176,3.2,1.244,4.089-2.843.714-3.464-3.111-1.244-4.089ZM420.436,403.1132c-2.576-2.577,1.865-5.602,3.819-3.735,3.466,3.202-1.242,6.312-3.819,3.735ZM430.653,403.1132c-2.221-1.866,2.31-5.957,3.999-4.09,1.779,2.222-1.332,6.667-3.999,4.09ZM355.926,400.7113c0-.534.532-.798,1.066-.798.622,0,.977.264.977.798,0,.355-.177,1.69-.8,1.69-.532,0-1.243-1.333-1.243-1.69ZM390.314,392.9763c2.22-1.066,3.644,3.289.711,4.178-2.846.714-3.2-3.109-.711-4.178ZM373.786,393.6883c2.309-.889,4.71,2.755,1.777,3.644-2.843.713-4.176-2.666-1.777-3.644ZM366.498,393.5113c2.224-1.067,3.999,3.288,1.245,4-2.843.799-3.643-3.2-1.245-4ZM444.2489,392.9763c1.154-.354,1.332,1.69.532,2.045-1.064.357-3.019-1.333-.532-2.045ZM434.652,393.6883c-.178-1.246,1.6-1.423,2.666-1.423.798,0,2.4.889,1.689,2.756-.711,1.956-2.576,1.067-3.82.532-1.069-.53-.179-.53-.535-1.865ZM381.072,395.2003c0-.534.532-.889,1.066-.889,1.42,0,1.509,3.023,1.066,3.023-.532,0-2.132-1.779-2.132-2.134ZM360.102,394.4893c0-.444.532-.799.977-.799.711,0,1.066.355,1.066.799,0,.534-.177,1.956-.888,1.956-.444,0-1.155-1.422-1.155-1.956ZM362.5,387.5543c1.066-1.155,2.578,1.424,1.245,1.956-1.423.355-2.488-.889-1.245-1.956ZM440.071,385.6873c1.246-.355,4.532,3.468,2.223,4.712-.888.267-4.71-4-2.223-4.712ZM430.831,388.2663c0-.889,2.134-1.69,3.111-1.601,1.066,0,3.822.178,2.842,1.601-1.246,1.244-1.955,2.222-3.641,2.133-1.601-.355-2.312-1.066-2.312-2.133ZM421.679,390.4883v-.266c-.179-1.956-.179-2.311.977-3.379,1.245-.978,4.176-2.755,5.065-.178.532,1.601.714,3.023.179,3.823-.357.355-.889.712-1.777.889-2.222.535-4.265.712-4.444-.889ZM410.838,390.4883c0-.623.535-1.689,2.489-2.754,2.222-1.513,2.578-1.333,3.465-.535.711.89,1.69,2.134.177,3.289-1.774,1.246-4.885,1.424-5.772.533-.18-.178-.359-.355-.359-.533ZM401.954,389.3333c.976-1.69,3.733-2.934,4.621-1.422.264.712,0,1.777-.711,2.577-.8.978-1.955,1.779-3.111,1.246-.978-.445-1.333-1.512-.799-2.401ZM392.535,390.4883c.354-2.044,3.819-4.623,5.064-3.111.712.889.712,1.956.179,3.111-.888,1.779-2.932,3.202-4.71,1.601-.533-.534-.533-1.068-.533-1.601ZM383.56,390.4883c-.177-.623-.177-1.51-.177-1.867,0-.532.355-.889.977-.889.532,0,.889.355.889.889,0,.355-.178,1.244-.712,1.867-.177.355-.354.712-.622.712-.177-.002-.355-.357-.355-.712ZM377.251,390.4883c-.979-1.155-1.867-2.399-.532-2.754,1.066-.355,3.465,1.421,3.82,2.754.177.533-.177,1.067-.8,1.424-.534.177-1.598-.535-2.488-1.424ZM368.722,390.4883c-.979-.8-.801-3.289.888-3.912,3.11-1.51,3.376,5.336-.888,3.912ZM457.2209,397.6893c0-1.69-.445-8.536,1.066-8.536,1.777,0,1.424,6.935,1.424,8.536-.179,1.865-.534,3.556-1.246,3.734-.889,0-1.244-1.867-1.244-3.734ZM453.757,395.7333c-.179-2.224-.179-4.535.533-4.712.443,0,1.245,1.601,1.511,2.933.355,1.779-.179,4.801-.623,6.402-.622,1.422-1.421-3.912-1.421-4.623ZM426.655,393.3333c1.42-.711,3.021-2.311,4.353-.177,1.066,1.423,1.332,2.667.532,3.645-.975,1.069-3.642,1.779-4.71,1.333-2.13-.712-2.664-3.734-.175-4.801ZM415.726,395.3783c.977-1.867,4.089-3.734,5.242-2.402,1.243,1.333,0,3.823-1.777,4.713-1.511.891-4.619,0-3.465-2.311ZM405.507,397.6893c-.886-2.134,2.754-5.424,4.355-3.646,1.511,2.222-1.156,6.579-3.821,4.265-.177-.174-.356-.263-.534-.619ZM397.067,397.6893c-.889-.89-.534-3.202,1.244-3.823,1.955-.89,3.2,2.578,1.332,3.823-.177.179-.443.355-.622.355-.888.266-1.599.001-1.954-.355ZM448.6019,404.8892c-.355-2.667-.178-4-.178-4-.179-2.4,2.397-3.021,2.754-.533,0,1.69,0,3.466.177,4.533.18.712.534.98,1.245.98,1.51,0,6.752-1.512,6.4,1.421-.357,3.112-4.355,3.467-5.777,3.289-1.509-.179-4.265-2.224-4.621-5.157v-.533ZM429.144,405.4232c1.864,2.045-3.467,7.467-6.665,4.178-1.245-1.333.798-3.287,2.931-4.265.89-.356,3.113-1.159,3.734.087ZM398.133,404.8892c.712-.532,1.51-.712,1.867-.177,0,0,0,.177.088.177.711,1.333-.888,4.712-2.666,2.756-.712-.889-.178-2.044.711-2.756ZM447.1809,412.1782c-.393-.569-.75-1.162-1.067-1.776-1.511-3.112-1.688-4.801-1.511-5.513.178-.353.355-.532.623-.532.177,0,.355.177.535.532.353.98.353,3.113,1.243,4.712.713,1.158,1.954,1.867,2.577,2.579.712.357,1.067.712,1.067,1.246-.002.797-1.601,1.331-3.467-1.248ZM428.075,412.1782c.178-.532.535-1.066.89-1.246,1.154-.532,2.752,0,3.819,1.246,1.511,1.513,1.866,4.18-1.599,5.334-2.218.891-3.819-3.289-3.11-5.334ZM418.658,412.1782c.177-.353.533-.711.886-.887.89-.179,1.778.177,2.49.887,1.332,1.246,2.044,3.823-1.066,4.713-2.486.623-3.465-3.021-2.31-4.713ZM409.862,410.5813c.976-.534,2.577.353,3.288,1.599,1.064,1.333,1.064,3.289-1.777,4.357-2.756.888-3.91-5.157-1.511-5.956ZM401.684,411.8252c.357,0,1.069.442,1.069.888,0,.534-.535.798-1.069.798-.71,0-1.065-.266-1.064-.798.002-.622.445-.888,1.064-.888ZM393.778,411.6463c.623,0,1.067.532,1.067,1.067,0,.355-.532.798-1.067.798-.534,0-1.066-.443-1.066-.798,0-.535.445-1.067,1.066-1.067ZM387.381,412.1782c4.533-2.754,0,6.757-2.31,4.18-1.067-1.244.711-3.289,2.31-4.18ZM442.1149,421.6912c-.532-1.155-.177-2.933,1.068-2.754,1.066.177,1.954,1.777,1.775,2.754,0,.712-.355,1.246-1.421,1.067-.711,0-1.243-.534-1.422-1.067ZM432.786,421.6912c0-.977.357-2.223,1.332-2.044.711.179,1.42,1.244,1.6,2.044.354.89,0,1.956-1.244,1.956-.977-.177-1.509-1.065-1.688-1.956ZM422.481,421.6912c-.18-.355-.18-.8-.18-1.689.18-1.601,2.311-3.289,3.022-2.668.711.712,1.688,1.246,2.752,1.777,1.246.534.89,1.776.178,2.579-.532.532-1.064,1.066-1.421,1.246-1.155.355-2.398.532-3.465-.535-.534-.177-.711-.53-.886-.71ZM413.861,421.6912c-1.068-1.155-1.068-3.645.532-4.179,1.865-.799,4.798,2.49,3.11,4.179-.353.355-.887.533-1.421.712-.889.355-1.689,0-2.221-.712ZM380.45,420.8023c-.088-1.599,2.133-3.2,2.933-2.044.532.711.177,2.133-.532,2.933-.891,1.246-2.312.268-2.401-.889ZM373.609,421.6912c-.355-1.155,0-2.933,1.245-2.578.888,0,1.688,1.601,1.688,2.578,0,.712-.266,1.246-1.332,1.246-.713,0-1.247-.534-1.601-1.246ZM367.389,421.6912c-1.245-.532-1.066-3.111.177-2.754,1.067.177,1.867,2.224.89,2.754-.178.18-.355.18-.533.18-.357,0-.534-.18-.534-.18ZM430.831,431.2933c.888-.711,2.312-1.066,3.821,0l.534.535c2.132,1.865-1.691,5.51-4.355,3.111-.976-1.067-.887-2.579,0-3.646ZM421.324,431.2933c.711-1.246,2.577-1.778,4.533,0v.178c2.043,1.867-1.602,5.333-4.355,2.935-.889-.891-.889-2.046-.178-3.113ZM411.55,431.2933c.711-1.246,2.311-2.133,4.532,0l.534.535c1.866,1.865-1.778,5.333-4.355,2.932-1.066-.888-1.244-2.221-.711-3.467ZM405.685,431.2933c.179-.177.532-.534,1.066-.711.978-.535,1.689,0,2.044.711.354,1.067,0,2.222-1.245,2.579-1.509.355-2.576-1.333-1.865-2.579ZM398.843,430.2272c.167-.214.379-.389.621-.512.242-.123.507-.191.779-.2.271-.009.54.043.79.15.249.107.471.268.651.471.892.889.534,2.756-.353,3.557-.711.534-1.599.713-2.222.09-.888-.71-1.154-2.667-.266-3.556ZM389.513,430.4042c.801-1.69,3.376-1.865,3.821.266.266,1.069-.445,2.934-1.688,3.113-1.332.089-2.933-1.512-2.133-3.379ZM372.097,431.2933c.446-1.601,2.578-2.754,4.799-.534l.532.534c.889,2.045-2.399,4.712-4.887,2.4-.622-.71-.799-1.512-.444-2.4ZM365.434,431.2933c.532-2.311,3.467-3.823,3.999,0v1.246c0,2.045-3.644,3.112-3.999-.534v-.712ZM358.68,431.2933c.534-1.956,3.288-2.133,3.822,0v1.333c-.355,1.956-3.644,3.202-3.999-.445-.002-.353-.002-.533.177-.888ZM417.148,440.9842c-.534-.355-1.067-.801-1.067-2.045-.178-2.934,4.532-3.288,3.998.533-.177.711-.712,1.333-1.421,1.512-.446.355-.978.355-1.51,0ZM407.285,438.4963c.799-1.692,2.93-3.114,4.088-1.868,1.066,1.246.534,3.378-.713,4.356-.356.532-1.067.8-1.69.712-1.507-.268-2.308-1.779-1.685-3.2ZM367.832,439.8282c-.179-1.955,2.31-4.266,5.065-1.778,1.689,1.692-.266,3.912-2.398,3.823-1.155,0-2.578-.8-2.667-2.045ZM361.79,440.6272c-2.043-1.867-.711-6.045,3.288-3.289,1.066.712.532,2.844-.623,3.646-.71.71-2.042.266-2.665-.357ZM356.281,437.8732c1.688-.712,1.866,1.421,1.422,2.578-.356.888-.888.977-1.777.444-1.067-.623-1.51-2.224.355-3.022ZM442.294,450.7612c.179-.532.532-.887,1.245-1.244,1.243-.534,1.864.18,2.043,1.244.18.89-.179,1.868-1.154,2.045-1.423.357-2.489-1.065-2.134-2.045ZM434.829,450.7612c.179-.353.357-.532.889-.711,1.423-.712,3.644-.353,4,.711.177.535-.534,1.333-3.112,2.402-1.598.711-2.841-1.244-1.777-2.402ZM424.789,450.7612c0-2.133,2.4-4.178,5.155-1.599.355.534.532,1.067.534,1.599-.179,1.692-2.756,3.289-4.799,1.513-.534-.533-.711-.978-.89-1.513ZM415.726,450.7612c1.066-1.421,2.932-2.133,4.887-.353q.177.178.177.353c1.511,1.867-2.487,5.692-5.064,3.289-1.067-.887-.89-2.309,0-3.289ZM407.019,450.7612c.532-2.133,3.198-3.111,3.643,0,.178.357.178.89.178,1.513,0,1.955-3.641,3.201-3.998-.533-.002-.268-.003-.623.177-.98ZM394.667,450.7612c0-.711.355-1.244,1.155-1.776,1.422-.533,2.309.534,2.133,1.776,0,.712-.356,1.333-1.245,1.513-1.243.355-2.043-.623-2.043-1.513ZM386.138,450.7612c0-.711.355-1.421,1.421-1.776,1.332-.712,2.223.534,2.044,1.776,0,.712-.356,1.333-1.246,1.513-.493.082-.999-.029-1.413-.311-.413-.282-.702-.712-.806-1.202ZM377.251,450.7612c.532-1.244,2.131-2.309,2.843-1.244.088.355.088.712.088,1.244-.088,1.333-1.509,3.113-2.754,1.692-.532-.534-.532-1.157-.177-1.692ZM368.899,450.7612c.888-.711,1.777-1.064,2.309-.353v.353c.532,1.333-1.066,4.358-2.577,2.579-.71-.887-.355-1.867.268-2.579ZM361.257,450.7612c.532-.353,1.42-.532,2.488,0l1.067.535c1.688,1.157-.532,5.867-3.376,3.288-1.157-1.064-1.157-3.111-.179-3.823ZM416.614,404.8892c-1.955.801-3.998,3.289-2.577,4.712,2.132,1.867,5.154-.798,5.507-2.932.448-2.044-1.507-2.403-2.93-1.78ZM316.651,361.3303c-.978-1.779-3.199-2.311-3.11.354.089,1.067.177,2.223.177,3.289.089,2.134-1.154,2.311-1.955,3.023-1.689,1.599-.8,5.156,1.778,4.978,2.575.355,3.642-2.579,3.999-5.867.267-1.777.088-4.267-.889-5.777ZM323.581,363.9073c-.266-.533-.888-.89-1.422-.801-1.066.178-1.066,2.668,1.066,2.045.535-.178.535-.71.356-1.244ZM368.456,383.1973c.266-1.155-.534-2.754-2.133-2.044-1.066.532-1.421,1.423-1.243,2.044.354.712,1.243,1.424,2.309,1.246.532-.177.887-.712,1.067-1.246ZM376.54,383.1973c.179-1.51-1.332-3.468-3.109-2.754-.977.532-1.333,1.776-.977,2.754.266,1.067,1.332,2.133,2.754,1.601,1.065-.177,1.332-.887,1.332-1.601ZM384.892,383.1973c.177-.799.177-1.69-.355-2.399-1.154-1.424-4.175.532-4.798,2.399-.355.712-.177,1.424.355,2.134,1.866,1.512,4.087-.176,4.798-2.134ZM392.535,383.1973s0-.177-.178-.177c-.711-.801-1.866-.444-2.932.177-1.6,1.067-2.755,3.202-1.6,4.18,2.666,2.488,6.31-1.867,4.71-4.18ZM404.262,383.1973c.712-1.155.889-2.577.179-3.468-1.243-1.333-4.441,1.246-5.241,3.468-.532.889-.532,1.779.09,2.311,1.685,1.512,3.908-.176,4.972-2.311ZM415.193,383.1973c.533-.444-.179-1.51-.711-2.399-.623-1.246-1.866-1.067-4.267.177-1.42.889-2.486,1.601-2.665,2.222-.178.355,0,.889.356,1.424,1.064,1.599,1.598,1.423,1.955.355.353-1.067,1.51-1.424,3.998-1.424.625.002,1.157-.176,1.334-.355ZM423.013,383.1973c.711-.978.888-2.222.179-2.934-1.332-1.689-4.978.89-5.51,2.934,0,.534.179,1.067.532,1.424,1.69,1.599,3.997.355,4.799-1.424ZM432.786,383.1973c.534-.799.534-1.867-.178-2.754-1.421-1.69-5.067.889-4.71,2.754.177.355.353.534.534.889,1.687,1.601,3.642.535,4.354-.889ZM439.1839,383.1973c.178-.799-.356-2.934-1.42-2.754-1.692.532-.98,1.955-.18,2.754.532.355,1.066.534,1.244.534.179-.177.356-.355.356-.534ZM446.2929,383.1973c0-.978-.712-2.577-1.512-2.222-1.421.355-1.244,1.423-.532,2.222.532.534,1.154,1.067,1.689.889.176.002.355-.532.355-.889ZM459.2659,381.4213c-1.067-2.491-1.246-4.446-1.599-7.023-.357-2.845-1.245-5.423-4.444-5.423-2.221,0-2.753.89-2.577,2.4,0,5.067,1.068,10.225,1.068,15.29,0,3.557,3.287.533,4.709-.266,3.465-2.045,4.442-1.155,2.843-4.978Z" style="fill: #fff;"/>
  <path d="M480.5019,383.1973c.533-8.267.711-16.713.711-24.981,0-12.09.534-24.269.179-36.361-.179-1.51-2.755-2.401-4-4.089-1.244-1.956-2.045,1.156-1.598,2.934.711,2.579,3.463,4.712,3.82,7.112.354,1.066-.623,3.645-1.068,6.311-.089.712-.089,1.422-.177,2.133-.266,1.777-1.068,8.179-2.4,9.423-.799,1.956-.264,3.823-.623,6.49,0,2.134-1.776,4.356-2.132,6.578-.887,1.778-.711,7.557-.798,9.957-.357,4.889-.534,9.69-.534,14.489-.177,3.023-.177,5.424-.355,7.29v2.311c.355,2.401,3.643,3.288,5.863,3.645,2.133.532,2.133-.355,2.399-2.222,0-.357.179-1.778.356-3.734.002-1.862.181-4.439.357-7.286ZM442.4729,464.0962c-.179-2.755,4.531-3.287,3.82.534-.179,2.133-3.644,3.113-3.82-.534ZM406.396,465.6982c-.179-2.935,4.442-3.288,3.998.533-.354,1.867-3.642,3.111-3.998-.533ZM384.36,465.5212c-.177-2.934,4.531-3.289,3.999.532-.357,1.867-3.644,3.112-3.999-.532ZM376.896,466.9422c0-.532.355-.889,1.066-.889.532,0,1.066.357,1.066.889,0,.267-.532.801-1.066.801-.711,0-1.066-.534-1.066-.801ZM432.965,464.0962c-.179-1.511.977-2.577,2.398-1.688,1.601.798,3.465-1.422,3.644.976,0,2.49-1.421,2.667-3.467,2.667-2.22-.175-2.575-.353-2.575-1.955ZM360.458,466.7632c.178-3.377,4.622-4,4.354.268-.355,4.356-4.71,3.021-4.354-.268ZM394.667,463.5632c1.866-1.689,2.755,2.668.8,3.2-3.11.98-4.621-.177-.8-3.2ZM414.393,468.0982c-1.954-.889,1.333-7.469,4.442-4.979,1.422.801.179,7.291-4.442,4.979ZM423.722,467.9202c-1.864-.978,1.776-8.355,4.888-5.867,1.334,1.066,0,7.999-4.888,5.867ZM378.673,472.4552c0-.534.532-.889,1.066-.889.445,0,.978.355.978.889s-.355,1.956-.801,1.956c-.711,0-1.243-1.422-1.243-1.956ZM388.536,473.6992c0-.534.532-.889,1.067-.889.711,0,1.066.355,1.066.889,0,.533-.355.888-1.066.888-.535,0-1.067-.355-1.067-.888ZM365.078,475.3872c0-1.688,2.309-2.754,3.198-3.287.8-.355,1.689.179,1.332,1.954-.354,1.867-1.332,4.98-3.11,4.98-1.686-.179-1.598-1.691-1.42-3.647ZM356.46,476.9902c-1.956-.889.977-7.114,4.176-4.89,1.154,1.065.621,6.933-4.176,4.89ZM396.177,475.0322c-1.866-.8.711-6.402,3.909-4,1.245,1.066.002,5.958-3.909,4ZM435.897,484.6322c-.179-2.754,4.532-3.289,3.998.534-.356,2.045-3.643,3.113-3.998-.534ZM396.354,485.3442c2.312-1.065,1.602,3.289.89,3.289-2.045-.176-3.288-2.309-.89-3.289ZM387.381,484.8112c2.401-.889,2.756,2.579.8,3.289-3.644,1.422-4.177-2.044-.8-3.289ZM426.121,486.4992c-2.043-.978.888-6.222,3.998-3.823,1.423,1.069.712,5.957-3.998,3.823ZM416.792,487.7452c-1.956-1.068,1.245-6.402,4.355-4,1.154.887.355,6.134-4.355,4ZM407.908,487.9232c-2.044-.888.887-7.112,4.176-4.712,1.243.889.532,6.934-4.176,4.712ZM355.394,481.7002c-.356,1.867-3.644,3.111-3.999-.534-.001-3.289,4.62-2.843,3.999.534ZM360.279,483.3902c-1.244-.714-.711-2.934.711-3.646,3.556-2.401,5.065,6.4-.711,3.646ZM394.845,479.7442c.354.888,0,1.956-1.066,2.49-3.11.977-3.999-1.068-2.401-2.49.266-.355.8-.711,1.332-.889,1.069-.357,1.78,0,2.135.889ZM413.15,481.7002c-1.955-1.333,1.243-7.025,4.351-4.889,2.046,2.044-.709,6.4-4.351,4.889ZM422.656,480.4562c-2.132-1.067.444-5.868,3.465-3.645,2.489,2.222-.621,4.8-3.465,3.645ZM433.497,480.4562c-3.198-.534-1.51-5.333.8-3.289,1.775,1.511,3.199-1.956,2.844.888-.622,2.224-.98,2.401-3.644,2.401ZM444.6029,480.4562c-.711,0-1.42-.355-1.777-.712-.711-.889-.711-2.044.891-2.579,2.132-.887,1.776,3.291.886,3.291ZM355.217,470.9452c-3.733,2.133-5.156-1.246-2.844-3.912,1.066-1.157,2.578-1.867,4.087-.8,1.064,1.064.089,3.909-1.243,4.712ZM369.787,470.8542c-1.597,0-1.865-3.912-1.865-4.978,0-1.601.8,0,1.688.712.711.534,1.689,1.068,1.689,2.133.088,1.155-.18,2.133-1.512,2.133ZM412.616,470.0522c1.598,1.867,2.931,4.623-.179,5.333-2.488.446-2.933-1.155-2.933-2.577-.089-1.689.623-5.601,2.933-2.934.002.002.002.178.179.178ZM422.833,470.0522c1.247.98.357,6.579-4.351,4.535-1.779-1.067,1.154-6.844,4.351-4.535ZM433.32,470.0522c-.177,2.226-1.778,5.692-5.42,4.18-1.068-.533-.534-2.668.535-4.18,1.332-2.043,4.885-3.289,4.885,0ZM443.183,471.6552c-.711,1.333-1.955,1.865-3.288,1.687-1.599-.177-2.399-1.776-2.577-3.288,0-.178-.177-.353-.177-.533,0-1.776,1.509-1.776,2.753-1.066.798.443,2.489,0,3.376.355,1.158.443.356,2.135-.087,2.845ZM352.993,460.2742c-3.732-3.645-3.643,8.891.446,2.311.354-.71,0-1.597-.446-2.311ZM360.547,458.2302c-.356-1.156-1.778-.712-2.933.179-2.665,2.045-.799,4.977.978,4.712,1.599-.268,2.399-3.558,1.955-4.891ZM366.321,456.7182c-2.843,0-2.843,4.179-.798,4.534,2.753.535,3.821-4.534.798-4.534ZM414.484,460.2742c.532-.889.532-2.223,0-3.288-2.934-6.4-6.044.355-4.444,3.288.177.355.534.714.622.89,1.777,1.421,3.199.534,3.822-.89ZM424.08,460.2742c1.599-.978,2.577-3.111,1.42-4.179-3.287-3.112-7.286,2.135-5.774,4.179,0,.18.179.355.179.355,1.419,1.246,2.928.712,4.175-.355Z" style="fill: #fff;"/>
  <path d="M478.1909,451.2962c1.332-9.869,2.311-19.735,3.556-29.605.354-3.556.798-7.821,2.842-10.846,1.245-1.865,2.752-3.466,2.843-3.377,0-1.067-3.198-3.111-3.109-6.4.264-8.89.711-17.869,1.066-26.759.532-13.78,1.332-28.27,1.243-42.495,0-1.867-.443-16.714-1.421-16.714-.886,0-.886,44.54-1.776,62.941-.266,6.045-.8,12.09-.8,18.047,0,1.333-.089,3.911-1.954,3.911-.623,0-2.931-.623-4.531-1.157-2.487-.887-4.887-2.667-5.065,1.422-.089,1.246-.179,2.935-.266,4.623-.179,1.867-.355,3.823-.179,4.712,0,2.402,2.044,1.333,4.355,1.333,4.797,0,5.508.623,5.242,4.624-.181,1.512-.267,3.736-.445,6.135-.535,9.778-1.955,19.559-3.287,29.07-1.155,7.634-2.221,15.28-3.201,22.938-.353,2.4-.886,5.156-.798,7.556.089,1.956.445,2.135.887.445.979-1.956,1.156-5.692,1.511-7.912,1.154-7.467,2.31-15.026,3.287-22.492ZM345.351,531.9282c-.355-1.956.355-2.845,1.156-2.488.711.353,1.065.711.532,2.754-.531,2.135-1.332,1.423-1.688-.266ZM338.332,547.4862c-.445-1.333.711-1.867,1.777-.978,1.066.799,1.598,1.865.711,2.755-.888.891-2.131-.355-2.488-1.777ZM327.048,547.8432c-.355-1.69,3.021-4.444,3.021-8.979s0-7.824,1.155-8.001c1.245-.177,2.31,2.401,2.31,5.333,0,3.025-1.601,8.89-3.11,10.669-1.599,1.688-3.199,2.754-3.376.978ZM324.47,570.2451c-.355-2.045,3.644-3.112,6.399-4.09,2.666-1.068,7.197-3.822,7.997-6.668,1.066-2.933,5.064-8.18,11.106-8.18,3.999,0,8.352,3.646,10.841,3.646,2.4,0,6.931-.623,6.576,2.845-.178,3.287,0,6.4,0,7.646,0,1.155-.355,1.867-3.109,2.044-2.844,0-7.465-.177-8.352.535-.887.711-3.11,2.932-8.531,3.643-5.419.535-13.505,1.246-16.526,1.246-3.112-.002-6.223-.356-6.401-2.6671ZM442.649,499.2122c-.177-2.932,4.532-3.288,3.998.535-.354,1.867-3.821,3.113-3.998-.535ZM434.297,496.8132c.889-2.488,1.955.179,2.667.8.8.533,2.575,2.844.354,2.844-2.31-.176-3.643-1.245-3.021-3.644ZM356.103,499.3922c2.398-1.067,1.689,3.288,1.066,3.288-2.131-.179-3.376-2.223-1.066-3.288ZM386.67,497.9662c2.398-.798,1.689,3.38,1.066,3.38-2.132.002-3.376-2.311-1.066-3.38ZM395.645,496.9902c2.489-1.068,1.599,3.112,1.065,3.112-2.043,0-3.287-2.311-1.065-3.112ZM352.282,493.7902c.532-2.399,3.999.178,2.933,1.956-1.776,2.755-3.821,2.755-2.933-1.956ZM359.747,491.9232c2.398-1.066,2.932,2.757,1.066,3.113-2.133.533-3.376-2.046-1.066-3.113ZM378.85,500.4572c2.399-.888,2.754,1.867.889,2.578-3.821,1.246-4.176-1.421-.889-2.578ZM382.849,492.2802c2.399-.889,2.933,2.579,1.066,3.289-3.821,1.421-4.176-2.047-1.066-3.289ZM390.491,491.7462c2.398-1.069,2.932,2.754,1.066,3.288-2.131.357-3.378-2.222-1.066-3.288ZM421.502,493.7022c-2.133-.89.179-5.779,3.287-3.378,1.245,1.067.711,5.245-3.287,3.378ZM411.907,494.3252c-1.867-.978.711-6.402,3.819-4.001,1.422.887.179,5.956-3.819,4.001ZM425.5,500.1022c-2.133-1.067.623-6.4,3.821-4.001,1.157.889.178,5.866-3.821,4.001ZM408.617,501.1682c-2.043-.887.178-5.956,3.465-3.555,1.245.888,1.245,5.779-3.465,3.555ZM416.437,500.4572c-1.954-.888.355-6.668,3.644-4.356,1.243,1.067,1.243,6.579-3.644,4.356ZM350.684,506.8602c-.177-2.935,4.354-3.289,3.82.533-.179,1.865-3.642,3.109-3.82-.533ZM433.497,510.6812c0-.532.268-.889.979-.889.532,0,1.064.357,1.064.889,0,.355-.532.89-1.064.89-.711,0-.979-.535-.979-.89ZM376.541,512.2822c0-.534.532-.889,1.066-.889.711,0,1.066.355,1.066.889,0,.535-.355.799-1.066.799-.534,0-1.066-.264-1.066-.799ZM384.537,511.7482c0-.534.533-.887,1.067-.887.532,0,1.066.353,1.066.887s-.532.889-1.066.889-1.067-.355-1.067-.889ZM364.1,511.7482c1.332,0,1.332,1.69,0,1.69-1.421-.002-1.421-1.69,0-1.69ZM356.103,510.8612c1.332,0,1.332,1.776,0,1.776-1.421,0-1.421-1.776,0-1.776ZM395.022,512.6372c0-.534.355-.889.977-.889.532,0,1.066.355,1.066.889,0,.444-.534.799-1.066.799-.621,0-.977-.355-.977-.799ZM390.137,503.9252c2.398-1.065,1.688,3.288,1.066,3.288-2.135-.177-3.378-2.222-1.066-3.288ZM359.393,504.8142c2.397-.889,3.109,2.934,1.065,3.289-1.957.534-3.289-2.311-1.065-3.289ZM373.075,505.2572c2.488-.976,3.02,2.846,1.066,3.202-2.043.533-3.288-2.133-1.066-3.202ZM415.549,513.6152c-2.045-.978.711-6.402,3.82-4,1.244.887.178,5.956-3.82,4ZM424.08,512.4582c-2.045-1.067.711-6.489,3.82-4.001,1.244.801.176,5.87-3.82,4.001ZM407.729,514.1492c-2.044-.891.179-6.579,3.287-4.179,1.423.891,1.423,6.313-3.287,4.179ZM342.865,518.3272c0-.355.532-.889,1.065-.889.532,0,1.066.534,1.066.889,0,.535-.532.888-1.066.888-.533,0-1.065-.353-1.065-.888ZM412.259,516.9062c0-.266.534-.801,1.068-.801.711,0,1.066.535,1.066.801,0,.532-.355.887-1.066.887-.534,0-1.068-.357-1.068-.887ZM437.496,514.1492c2.224-.979,1.511,3.287.8,3.287-2.044,0-3.288-2.488-.8-3.287ZM428.435,514.8612c.711,0,1.686.178,2.396.444.799.266,1.067.621.179,1.155-.711.534-1.864.978-2.223.978-1.155-.002-2.219-2.133-.352-2.577ZM423.723,517.0812c-.18,1.956-3.644,3.202-3.819-.443,0-3.646,4.796-2.579,3.819.443ZM380.184,515.7492c.533-.978,2.667-1.69,2.667,0,.177.977-.178,2.401-.532,2.401-1.602,0-2.58-1.424-2.135-2.401ZM371.474,517.5272c-1.421,1.865.179,2.488,2.667,1.51,1.243-.355,1.243-2.399.532-3.288-1.064-1.067-2.754,1.244-3.199,1.778ZM359.836,516.7262c.266.89-.177,1.868-1.156,2.136-1.598.443-2.752-1.333-1.865-2.491.709-1.066,2.666-1.334,3.021.355ZM350.149,515.7492s.178-.178.356-.178c.889-.357,1.422-.179,1.777.178.889.889.711,2.754-.711,3.113-1.954.353-3.108-1.956-1.422-3.113ZM347.929,503.7472c-.357.355-.889.355-1.066,0-.532-.355-.532-1.601.532-4,1.066-2.4,3.999.177,2.932,1.867-.71,1.067-1.509,1.778-2.398,2.133ZM415.371,503.7472c.178.534.355,1.246.178,1.867-.178,1.956-3.642,3.202-3.82-.445-.179-.533,0-.888.355-1.422.183-.267.428-.486.714-.637s.605-.23.929-.23.643.079.929.23.532.37.715.637ZM423.545,503.7472c.535,1.067.18,2.224-1.064,2.579-1.511.355-2.755-1.333-1.866-2.579.177-.177.534-.534,1.066-.712.975-.355,1.686,0,1.864.712ZM432.786,503.7472c.356.178.534.356.534.534,0,.533-1.422,1.69-1.956,1.69-.711,0-2.397-1.157-2.397-1.69,0-.179.179-.356.179-.534.218-.205.499-.33.798-.355.887-.179,2.13.178,2.842.355ZM440.961,503.7472c.624.889.445,2.579-.888,2.934-1.776.355-3.109-1.69-1.598-2.934.177,0,.353-.177.532-.355.324-.143.683-.185,1.031-.122.349.063.67.229.923.477ZM367.032,532.9952c-.177,1.246-.711,1.689-2.932,1.332-3.021-.711-4.353-1.066-6.931-.711-2.844.177-5.242.355-7.02.355-1.688,0-1.154-1.777-1.154-4.18,0-3.734,6.399-4.089,8.797-4.178,4.621-.174,10.218,1.871,9.24,7.382ZM412.259,533.0832c-3.998-1.333-11.639-2.579-15.194-2.754-3.821-.178-13.152,1.867-16.883,2.754-3.82.712-4.975.889-5.33-1.865-.977-3.734,4.621-5.158,7.108-5.956,5.242-1.156,12.528-1.156,14.928-.978,3.112,0,3.555-3.557,4.264-3.378.532.178.889,3.466,3.467,4.001,2.044.443,8.086.534,10.664,1.956,3.02,1.597,1.065,7.732-3.024,6.22ZM423.013,527.9272c.266.978.179,2.045.088,2.755-.088.889,0,1.333-.977,1.776-.622.268-1.421.268-1.509-.711-.089-1.156,0-2.309-.089-3.023-.09-1.597,1.775-2.664,2.487-.797ZM427.1,529.3512c.177.889.264,1.423-.8,1.689-1.866.18-1.688-2.667-1.422-4.089.09-.889.533-1.333,1.156-1.333,1.332-.001.887,2.666,1.066,3.733ZM442.649,527.9272c0,1.69.355,2.577-2.044,2.4-2.309-.355-3.643-.534-6.487-.534-2.754,0-4.263,1.246-4.621-.888-.444-.798-.353-2.754-.353-3.645,0-1.333.975-1.867,1.155-.714.179,1.069.088,1.692.266,2.402.354,2.044,1.154.798,1.154-.799,0-1.246-.888-4.89,1.776-4.712,2.223.177,4.799.089,6.31.177,2.487.089,2.842,1.777,2.842,3.735l.002,2.578ZM358.324,489.3442c2.044-2.577-1.598-5.244-3.644-2.932-2.398,2.932,2.135,4.888,3.644,2.932ZM433.143,489.3442c-2.756-1.155-4.799,2.845-2.844,3.823,3.998,1.867,4.709-2.49,3.466-3.288-.268-.178-.445-.357-.622-.535ZM441.406,489.3442h-1.333c-.534.18-.887.535-.711,1.333.711,2.67,2.932,3.113,4.887,1.779,2.932-2.132-1.511-2.844-2.843-3.112ZM465.6639,450.4082l2.487-39.651c.889-14.313,1.864-28.804,2.398-43.205.089-2.311,1.069-7.112-2.398-7.112-4.442.446-3.91,3.112-3.998,6.402-.444,15.113-1.332,30.405-2.399,45.338-.623,12.624-1.511,25.336-2.222,37.96-.8,13.604-1.512,27.203-2.311,40.807-.886,15.556-1.777,31.115-2.752,46.584-.712,12.445-.98,23.38-.89,24.981.18,3.468.89,2.577,1.246.8.355-.979,1.689-6.226,2.666-10.402.89-3.646,1.244-6.4,1.333-9.779.089-6.489.179-12.625.889-19.023,1.153-10.978,2.13-21.974,2.93-32.983.978-13.514,2.221-27.116,3.021-40.717Z" style="fill: #fff;"/>
  <path d="M470.5489,473.8772c1.422-7.646,2.31-15.203,3.287-22.936,1.157-9.691,2.311-19.38,3.022-29.248.179-1.689.354-2.934.354-3.645.178-4.001-1.42-4.356-3.287-4.356-1.954-.179-3.642-.179-3.642,1.422-.268,11.29-1.156,23.648-2.134,35.204-1.154,13.691-2.223,27.382-3.021,41.073-.266,3.821-.534,7.646-.888,11.289,0,3.378.977,1.777,1.688-.355,1.069-9.335,3.025-19.203,4.621-28.448ZM342.953,297.4093c-.888,1.067-.534,2.49-.088,3.289.354.711,1.599,2.754,0,3.466-1.69.534-2.045,2.401-1.155,3.289.977,1.066,1.866,2.667.622,3.823-1.51,1.066-1.155,2.756-.445,3.823.623,1.246,1.332,2.133.089,2.933-2.133,2.223-.801,2.934-.089,4.801.178.623.178,1.156-.533,1.333-1.422.178-2.488,1.244-.888,3.646,1.689,2.399,1.51,3.468.354,3.468-.977.177-2.399.266-2.665,1.066-.266.623,1.066,2.045,1.42,2.579.978,1.511,2.044,3.468.889,3.468-1.6-.177-3.287-.889-2.132,1.422.355.532,3.821,6.579,1.955,6.579-1.6,0-3.822-1.066-2.932.533.445,1.155,2.488,3.645,3.198,5.333,1.6,3.823-5.242.8-3.554,3.557,1.156,1.867,4.176,5.511,2.399,6.4-1.509.889-3.11.532-2.576,1.689,0,.178.177.178.177.355,1.156,1.779,3.644,7.023,1.51,6.489-2.221-.355-4.264-1.244-2.755,1.156.355.534.711,1.066,1.245,1.601,1.333,2.044,2.754,4.177.89,4.532-2.31.355-3.554,1.156-2.31,2.402.711.978,4.532,5.333,2.578,6.222-.979.355-1.867.089-2.578-.088-3.199-.978-.355,2.222.532,3.734,1.6,3.022,3.287,6.489.888,5.424-2.132-.889-3.286-.889-1.777,1.776.177,0,.177.18.177.18,1.6,2.488,2.933,6.668,1.246,6.311-1.6-.534-3.999-2.133-2.577.534,0,0,.177.178.177.353,1.509,2.579,4.444,6.402,2.4,6.58-2.4.179-5.154-3.023-3.287.711,1.509,2.402,3.287,5.868,1.332,5.513-2.044-.444-4.976-2.579-2.401,1.067.89,1.068,1.601,2.133,2.045,2.933,1.598,2.489,2.488,4.533.888,4.356-2.043-.355-2.576-1.157-3.466-2.045-1.066-.887-2.043-.355-.889,1.511,1.066,1.246,2.844,3.823,3.821,5.778.355.888.532,1.511.532,2.045-.177,1.956-1.509,1.778-2.932.712-1.598-1.246-2.932-.355-1.244,1.421,1.423,1.158,2.667,3.648,3.288,5.513.354,1.066.532,1.778.532,2.135-.178,1.333-1.155.888-2.578-.179-.817-.631-1.616-1.283-2.398-1.956-1.066-.532-1.778-.712-1.423,0,0,.355.177.712.534,1.246,1.51,2.668,3.821,4.978,4.531,7.112.8,1.956.355,4.712-2.31,1.421-1.332-1.776-4.176-2.667-2.933-.887.178.355.355.534.535.887,1.598,2.045,4.353,6.402,4.353,8.001,0,1.692-1.778.357-3.287-.532-1.423-1.067-3.644-1.422-2.31.532.177.357.711.98,1.066,1.512,1.601,2.311,3.644,5.424,3.644,6.489,0,1.512-1.244,1.692-2.753.268-1.601-1.333-3.998-2.044-2.666.178.354.711,1.065,1.778,1.775,2.843,1.067,1.691,2.4,3.559,3.11,5.069.622,1.246.977,5.511-1.243,3.111-1.51-1.421-4.444-4.533-4.799-3.557-.355.712,3.821,5.779,4.531,7.559,1.332,2.755,2.043,5.334-.355,3.11-2.489-2.133-6.665-3.466-4.71-1.244,2.043,2.399,3.999,5.156,5.331,8.089,1.332,2.934,2.22,6.491-2.044,2.845-4.799-4.179-9.952-8.18-12.35-14.402-.712-1.422.889-.712,2.309.889,1.155,1.512,3.467,1.867,1.867-.179-1.778-2.668-3.376-5.245-4.531-8.354-.8-2.757.712-1.779,1.778-.357,1.243,1.246,3.287,1.778,1.688-.888-1.245-2.578-3.466-4.534-3.998-7.647-.623-2.932,1.776-.888,2.666.179,1.066,1.246,3.999,2.135,2.222-.533-1.245-3.024-3.999-4.98-4.711-8.446-.623-3.377,4.531,2.934,4.888,1.157.355-.889-1.333-3.289-2.753-5.692-.089-.177-2.844-6.577-.446-5.156,1.421.801,3.822,4.624,4.088,2.668.354-2.045-2.756-4.801-3.644-7.289-.179-.533-.179-.978-.179-1.333.356-1.956,2.222.532,3.466,1.333,1.066,1.067,1.155.09.889-.889-.266-.799-.8-1.599-.889-1.688-1.156-1.603-2.489-3.648-3.021-5.245-.623-1.601-.355-3.377,1.777-1.867,1.778,1.246,3.998,3.289,4.176,2.222,0-.532-.532-1.155-1.155-2.222-1.688-2.224-4.176-4.89-4.353-7.735-.266-3.287,5.776,2.757,6.042,1.956.178-.976-.532-2.398-1.421-3.821-1.688-2.4-3.91-4.978-3.467-6.579.89-2.224,5.777,5.956,6.309,3.823.355-1.424-2.666-4.356-3.998-6.757-.712-1.067-1.066-2.133-.712-2.755,1.066-2.31,4.178,3.289,5.065.623.355-1.157-1.066-3.288-2.31-5.157-.978-1.777-2.043-3.289-1.51-4.178.8-2.045,3.644,2.754,4.354,1.157.266-.8-1.066-2.49-2.31-4.18-.889-1.423-1.689-3.022-1.244-4.18,1.244-2.667,4.176,3.469,5.065,1.513.978-1.956-5.065-5.602-4.176-7.824,1.067-2.044,3.644,3.023,4.71,1.779.978-1.333-5.242-9.068-3.998-10.223,1.066-1.424,3.82,3.111,5.065,1.332.799-1.066-1.601-3.734-2.667-5.956-.355-.712-.889-1.778-.623-2.579.8-1.155,2.401,1.246,3.467,1.956.177.355.532.355.622,0v-.177c.532-1.956-4.087-6.757-3.11-8.89.178-.267.266-.444.446-.533h.62c1.246.533,2.667,2.934,2.933,1.779.177-.355-.177-1.067-.532-1.779-1.155-2.222-3.821-5.69-2.933-6.934,1.246-1.511,3.821,2.311,3.999-.178,0-.978-.355-1.689-1.066-2.577-.8-1.246-2.223-2.578-2.223-5.067,0-3.823,4.533,2.311,4.71.357.446-2.668-4.71-5.956-3.821-9.868.889-3.289,3.287,2.756,4.176.355.889-2.49-4.087-5.422-3.199-8.179,1.066-2.31,3.022,1.69,3.554,0,.445-1.778-3.022-5.067-2.31-7.111.888-2.134,2.932,1.51,3.466-.178,0-2.311-3.11-3.288-2.399-5.956.89-2.934,2.576.889,2.933-1.333.445-2.4-4.442-6.4.623-7.2.711-.089,1.155-.178.622-1.156-1.245-1.778-3.109-4.355-2.132-5.244,1.243-.89,3.644,0,3.022-1.511-.713-1.421-3.199-4.178-1.779-5.244.357-.178.534-.357.889-.535,1.067-.889,1.333-1.421.89-2.222-.89-1.066-1.779-2.311-.713-3.289.979-1.066,1.333-1.244.979-2.845-.09-.533-.09-.977,0-1.332.354-1.333,1.332-1.511,1.243-3.2-.089-.978-.621-1.956-.444-2.845.089-.533.444-1.156.889-1.601.889-.89.266-1.779.089-3.112-.266-1.244,0-2.754.534-3.734.888-2.579,1.689-5.511,2.398-8.09.355-1.333,2.4-10.846,3.467-10.846.711-.177,1.777,1.956,2.309,4.533.532,1.779.889,3.823.889,5.424,0,2.045.445,5.511.8,8.977.355,3.646.712,7.38.532,9.78-.249,1.228-.368,2.48-.354,3.734-.089,3.022,0,5.244-.356,6.134-.355.889.089,2.399.089,3.645,0,.621-.179,1.067-.179,1.599,0,1.333,1.155,3.023.088,4.535-1.154,1.51,1.601,2.577.356,4.978-.801,1.422-.801,1.956-.446,2.489.623.889,1.6,1.778,1.6,3.022,0,1.511-3.287.089-2.489,1.69.8,2.044,4.176,5.69,2.222,5.156-1.777-.533-2.222.532-1.422,1.956.356.532,1.067,1.155,1.778,2.044,1.066,1.246,2.043,2.579.532,2.49-2.31-.177-3.11,0-2.666,1.333.712,1.244,6.842,7.112,3.021,6.311-.8-.177-2.667-.532-2.844.267-.445,1.51,4.531,3.823,4.531,6.488,0,2.222-.533,2.577-2.044,1.156-1.422-1.511-2.932-1.511-1.954.355,1.155,2.222,3.286,3.912,3.643,6.489.355,2.222-.623,2.222-1.866.532-1.422-1.778-3.11-1.423-2.133.266.712,1.599,2.222,2.755,2.933,3.912,1.243,1.867,1.154,3.557-1.422,1.956-.533-.355-1.424-.801-1.69-.533-.266.267.266,1.156.624,1.779,1.066,1.599,2.931,4,3.197,6.488.178.89,0,1.422-.177,1.69-.623.712-1.6-.445-1.866-.978-.534-1.246-3.287-3.111-2.223-.712.532,2.134,3.199,3.644,3.466,5.691.355,1.778.178,2.845-1.599,1.244-1.69-1.599-3.644-2.222-2.576-.355,1.154,2.133,3.021,3.734,4.175,5.956.978,2.224.978,2.4-1.422.978-2.221-1.155-3.11-.177-1.066,2.133,2.309,2.045,3.109,3.289,2.843,4.713-.355,1.332-2.132.266-3.021-.89-.445-.711-1.332-.8-1.6-.266-.266.712.534,2.045.889,2.579,1.155,1.69,2.132,2.4,1.955,3.555-.355,1.423-1.599.532-2.221,0-.446-.266-.8-.178-.978.089-.354.532,1.423,2.399,1.777,3.022.624.801,1.067,1.69,1.422,3.023.357,2.044-1.066,1.333-2.044.8-1.066-.445-1.243,1.067-.177,2.134.799,1.6,2.755,3.2,2.755,4.978,0,1.51-.534,2.222-2.133.978-1.509-1.155-3.109-.179-1.332,1.601.178.177.355.532.711.712,1.333,1.689,2.578,3.466,1.156,3.466-1.51,0-4.176-1.599-3.11.711.711,1.333,1.6,2.224,2.309,3.114.266.534.801,1.066.978,1.689.355,1.777-.533,2.488-1.689,1.777-1.245-.712-2.666-1.777-1.777.711.888,1.868,1.954,3.823,2.309,5.334.177.357.177.712.177,1.068-.177,1.777-1.243,1.246-2.488.178-1.333-1.067-2.754-.355-1.51,1.246,1.155,1.51,1.867,1.867,2.044,4.178.356,2.044-1.598.623-2.044,0-.355-.712-1.598,0-.532,1.867.354.355.532.712.711,1.067.801,1.332,1.689,2.756,1.867,3.822.179,1.245-.712,1.513-1.867.355-1.243-1.246-2.309.355-1.421,1.333.712,1.067,2.399,3.202,1.867,4.001-.889,0-3.466,1.066-2.401,2.133,1.6,1.333,1.778,2.045,2.223,3.289.533,1.246-1.689.712-2.577,1.421-.711.623.534,1.692,1.422,3.114.178.355.532.887.711,1.157.624,1.954,1.511,4,0,3.377-1.42-.889-3.02-1.068-2.309.799.355,1.067,2.222,4.355,1.245,5.067-.8.534-2.043-.799-2.488-.266-.266.445-.089,1.512.889,3.024.977,1.599,1.422,2.668,1.688,3.733.266,1.867.711,2.667-1.598,2.225-1.423-.268-1.51.178-1.066,1.333.445,1.777,1.866,3.644,2.222,4.888.532,1.246-.356,1.778-1.599,1.246-.712-.266-1.246.089-1.333.623-.178.799,1.244,3.023,2.044,4.799.622,1.333.977,4.001-1.509,3.113-1.245-.357-2.311.444-1.422,1.688.443,1.512,1.51,2.845,2.044,4.357.532,1.422-.445,1.599-1.333,1.067-.888-.712-1.6,0-.711,1.865,1.066,1.956,2.933,5.245,1.066,5.424-1.955.179-3.198.355-2.309,1.69.177.534.532,1.246.888,1.778.889,1.511,1.423,3.287.179,3.111-1.777,0-2.932-.889-2.754.533.178,1.246,2.221,3.289,1.155,3.823-.977.534-1.511.355-1.155,1.69.178.711.532,1.955.8,2.845.355,1.332.355,2.397-.266,2.754-1.244.355-1.599,1.777-.532,3.289,1.155,1.776,1.688,3.289.355,3.289-1.422,0-3.022.177-2.133,2.133.177.177.355.534.355.712.888,1.51,1.6,2.933.888,3.288-.8.535-7.107-8.267-4.71-9.779,1.067-.621.889-1.688.534-3.2-.888-3.111-1.422-5.067.178-8.445,2.753-4.889,2.044-11.912,2.31-17.514.977-23.47,1.954-47.1179,3.91-70.5879.977-16.091,2.043-32.093,2.844-48.183.088-2.934.266-6.225.445-9.602.711-13.602,1.42-27.293,2.309-40.983.355-8.89,1.243-17.691,1.689-26.581,1.066-7.912,1.155-16.091,1.6-24.182,0-2.934.177-5.156,0-5.69-.177-1.956-.711-.712-1.245,1.066-.177.799-.89,2.755-1.333,4.622-.711,2.401-1.243,4.357-.888,6.757.354,3.645,1.065,9.424-.178,12.09-.355.8-.711,1.601-.355,2.577.266.623.444,1.601.178,2.401-.275.71-.72.799-1.164,1.42ZM472.5929,287.4523l1.511-99.0349c0-15.825.889-36.628.532-50.4961-.532-13.9572-3.109-18.137-4.53-18.137-1.245,0-4.533,6.1338-5.065,15.6469l-1.245,55.1172c-.445,33.427-1.512,67.3869-2.578,100.7249-.177,4.533.623,8.356,4.353,8.89,1.066.18,1.156,1.067.444,1.69-1.245,1.156-3.019.533-4.087,1.777-1.776,1.956-.887,3.911-1.51,5.867-.356.889-.979,1.244-1.954.889-1.246-.623-.535-1.51-.712-2.933-.179-1.511-2.577-1.511-4.887.889-.978.978-4.089,4.801-2.577,6.045,1.245,1.246,1.775.355,2.931-.446,1.246-.889,2.49-2.845,4.176-2.845,1.778,0,1.424,2.311,2.667,3.112.979,1.066,2.934,0,4.977.532,2.309.355,3.465,2.311,3.82,1.246.355-.889-.532-1.423-1.689-1.956-1.246-.445-2.842-.623-2.842-1.333s3.02-.889,4.352-.889c1.245,0,1.954-.355,5.421-.532,3.643-.355,5.688,5.067,6.752,5.244,1.775.266,1.954-5.511,1.954-6.757,0-4-4.178-8.712-7.997-8.178-1.6.089-6.221-.177-4.265-2.401.266-.444.713-.799,1.069-1.244,1.69-1.598.979-7.998.979-10.488Z" style="fill: #fff;"/>
  <path d="M489.2099,497.5252c0-7.735-6.752-11.736-10.928-4.358,1.243-10.223,12.618-18.135,19.636-8.355,3.733-5.068,16.439-4.267,19.105,1.512-4.087-.267-10.217.711-11.109,5.599,12.796,2.045,10.043,20.714.358,25.515.534-2.754,1.42-10.578-3.112-10.578-9.063,0-11.284,15.734-8.884,22.67,3.465,9.957,15.282,23.025,33.144,23.025,25.766,0,33.232-28.094,33.232-48.63,0-4.178-.18-8.179-.889-12.002-23.993,3.113-39.098-20.002-41.851-39.4699-.355-.179-.534-.179-.713-.266-12.528-7.023-23.634-16.536-23.634-34.315,0-14.491,10.927-27.826,24.524-32.183.089-3.468.353-6.577.353-9.779.801-32.627,14.751-52.629,43.541-52.629,5.775,0,9.596,1.599,14.129-8.001,4.087-8.89,1.509-15.29,3.286-22.936,1.51-7.646,6.22-7.469,8.442-7.469,2.488,0,4.887,3.468,4.887,10.225,0,13.78-17.6839,30.76-17.6839,30.76,0,0,4.711,2.845,9.3299,8.533,4.531,5.956,4.178,8.535,7.019,8.535,4.265,0,2.222-10.489,2.222-10.489,0,0,6.752,4.622,6.752,12.89,0,8.891-7.996,8.536-7.996,8.536,0,0-.889,8.89-7.818,8.89-10.575,0-9.688-13.068-9.688-13.068,0,0,3.646,4.889,6.752,4.889,2.578,0,4.178-3.288,4.178-6.579,0-3.466-8.886-17.603-21.148-17.603-29.323,0-29.323,33.96-31.187,53.875,15.282,1.599,19.194,9.6,22.834,9.6,6.042,0,1.068-8.444-.711-10.668,6.22,2.49,12.44,8.18,12.44,15.29,0,4.623-6.221,6.934-6.221,6.934,3.732,10.491-7.642,20.892-17.86,19.736,2.134-2.224,5.331-5.603,3.287-8.801-4.442,5.513-15.551-3.734-10.929-12.891,2.223,5.158,8.886,6.045,8.886-.355,0-5.422-6.577-10.668-11.728-11.733-.356,19.557-1.867,40.182.443,59.741,14.394,9.6,27.81,14.669,37.144,31.558,12.795-4.799,15.725-18.845,14.748-30.935-.179-3.113-.889-6.045-.889-9.334,0-8.358,10.131-9.957,10.042-17.516,0-4.712-3.732-3.466-6.396-.887,0,0-.889-9.602,6.485-9.602,10.841.532,3.644,20.268.977,24.182,0,0,1.601,3.466,2.578,5.422,1.066,2.045,2.308,4.623.178,4.267-1.332-.18-3.465-.355-4.886-.089-1.156.179-1.42,2.4-1.332,5.067.089,15.558-2.578,29.693-18.572,36.093,1.956,4.801,2.931,10.225,2.931,16.092,0,27.203-17.683,54.2289-47.004,54.2289-26.125.088-41.585-16.89-43.896-35.916-1.063-9.337,3.202-17.338,3.202-26.228ZM558.3389,485.1662c-3.82-13.511-11.017-18.935-23.103-24.357,2.755,13.691,7.82,24.357,23.103,24.357ZM517.7329,393.6883c-12.707,10.756-12.085,34.226-1.066,46.14,0-15.469,1.066-30.848,1.066-46.14ZM460.4219,335.2803c-.711,0-.357-1.155,0-1.423.443-1.333,1.864-.978,1.687-.178-.178.446-1.066,2.313-1.687,1.601ZM382.406,284.0753c.977-.357,1.509.443,1.066,1.244-.446.8-1.246,1.956-2.044,1.51-.889-.532,0-1.778,0-1.778.266-.442.532-.799.978-.976ZM383.915,288.1643c.445-1.333,1.689-.889,1.51,0-.178.889-.889,2.133-1.51,1.601-.532-.357,0-1.601,0-1.601ZM385.247,292.6993c.357-1.067,1.246-.712,1.067,0-.178.532-.712,1.599-1.067,1.244-.532-.355,0-1.244,0-1.244ZM404.796,297.7663c-.622.445-1.42-.089-2.578-.801-.887-.623-1.866-1.066-2.665-1.599-1.867-1.157-3.11-2.667-1.956-4.266,1.601-2.045,4.087.711,5.332,1.955.533.622,2.754,2.668,2.399,3.912.002.265-.354.708-.532.799ZM387.202,297.4983c.711-.799,1.866-.355,1.51.445-.178.712-.978,2.045-1.689,1.511-.619-.267-.087-1.511.179-1.956ZM388.891,301.9443c.622-.355,1.51,0,1.246.623-.178.711-1.067,1.778-1.956,1.421-.711-.534.089-1.778.71-2.044ZM397.244,309.7673c-1.599-.889-2.045-1.776-1.422-2.667.888-.801,1.6.177,3.199,1.246.89.711,1.422,1.244,1.69,1.689.264.533.264,1.333-.445,1.244-1.068-.001-2.133-.979-3.022-1.512ZM460.6859,327.2813c.711-1.601,2.667-1.066,2.312,0-.18.889-1.423,2.4-2.312,1.956-.798-.534,0-1.956,0-1.956Z"/>
  <path d="M398.843,225.4894c0-.355.178-.532.445-.532.353,0,.712.177.712.532s-.357.623-.712.623c-.267,0-.445-.268-.445-.623ZM407.729,222.6444c0-.355.354-.623.888-.623.353,0,.712.266.712.623s-.357.712-.712.712c-.532,0-.888-.357-.888-.712ZM423.902,301.7663c0-.532.353-.889,1.066-.889.532,0,1.066.355,1.066.889s-.534.801-1.066.801c-.712,0-1.067-.267-1.066-.801ZM444.069,298.6533c1.157-.889,3.288.266,1.867,1.51-1.333,1.246-3.11-.709-1.867-1.51ZM447.359,304.1663c1.245-.889,3.464.534,2.043,1.601-1.51,1.155-3.109-.712-2.043-1.601ZM443.005,308.1663c0-.357.534-.889,1.066-.889.534,0,1.068.532,1.068.889,0,.533-.534.889-1.068.889s-1.066-.355-1.066-.889ZM366.498,307.1003c2.224-.978,3.821,1.955,1.778,2.31-1.955.535-4.176-1.421-1.778-2.31ZM373.431,305.0553c2.309-1.067,4.71,2.399,2.666,2.754-1.954.535-5.066-1.687-2.666-2.754ZM368.899,300.1653c1.066-1.066,2.666,1.601,1.243,1.956-1.243.355-2.398-.712-1.243-1.956ZM360.99,301.0543c.978-1.246,2.578,1.422,1.155,1.868-1.332.355-2.398-.801-1.155-1.868ZM357.614,307.8113c0-.355.355-.889,1.066-.889.535,0,1.067.532,1.067.889,0,.534-.532.889-1.067.889-.711,0-1.066-.356-1.066-.889ZM457.399,281.7643c0-1.424-.532-2.133-.976-1.956-.356.177-.356.889-.179,1.777.179.534.355,1.6.355,2.756v2.934c-.177,1.778.798,1.778.977.355.179-.533.091-1.69,0-2.757,0-.978-.177-2.042-.177-3.109ZM449.2239,283.4523c-.533-.355-1.156-.533-1.688-.446-1.155.178-1.245,1.511-.623,2.311.623.712,1.776,1.067,2.843.445.89-.887.356-1.687-.532-2.31ZM435.186,284.1633h-.18c.355-.532-.711-.978-2.043-.532-.532.177-.712.355-.889.712,0,.355,1.246.711,2.223.355.355-.178.532-.355.711-.355l.178-.18ZM416.437,284.3413c.355-.178.889-.355,1.245-.712,2.223-1.51-.179-4.089-1.245-4.089-1.066.089.179.978-1.421,2.579-.978,1.066-.623,1.867,0,2.222.355,0,.889.177,1.421,0ZM418.482,287.6303c2.842-.623.353-2.222,2.133-2.757,1.866-.532,2.577,2.757.711,4.358-1.957,1.778-5.6-.712-2.844-1.601ZM410.04,287.2753c0-.267.534-.801.978-.801.711,0,1.066.533,1.066.801,0,.532-.355.889-1.066.889-.444,0-.978-.355-.978-.889ZM422.211,291.6303c.8-1.333,6.043.889,3.466,3.2-2.664,2.224-4.353-1.599-3.466-3.2ZM426.479,289.9423c-2.045-.889,2.133-3.645,3.199-4,1.509-.355-1.243,4.71-3.199,4ZM431.542,292.3423c1.068-1.244,2.578,1.601,1.246,1.956-1.246.355-2.489-.71-1.246-1.956ZM446.647,293.0543c1.245-1.424,4.71,1.244,2.932,2.222-1.864,1.244-3.997-.801-2.932-2.222ZM443.717,289.4083c1.243-1.246,2.753,1.599,1.42,1.867-1.42.355-2.488-.623-1.42-1.867ZM457.7549,291.8093c.713,0,.888,1.601.713,2.49-.181.801.711,1.333-.535,1.511-1.066,0-.355-1.511-.534-2.222,0-.889-.355-1.601.356-1.779ZM451.5339,289.7653c0-.355.533-.889,1.066-.889.446,0,.978.534.978.889,0,.532-.532.889-.978.889-.533-.002-1.066-.357-1.066-.889ZM360.102,289.9423c0-.355.355-.889.977-.889.532,0,1.066.532,1.066.889,0,.533-.532.889-1.066.889-.621,0-.977-.356-.977-.889ZM357.258,295.2763c0-.446.532-.801,1.066-.801s1.067.355,1.067.801c0,.532-.535.889-1.067.889s-1.066-.355-1.066-.889ZM448.247,272.1624c-.355-.445-1.066-.8-1.6,0v.177c-.711,1.779.178,3.646,1.421,1.956.534-.889.358-1.601.179-2.133ZM436.0719,272.1624c-.533-.8-2.131-1.69-3.463-.623-.356.178-.535.446-.713.623-.888,1.422,1.246,2.668,3.288,1.956,1.247-.355,1.247-1.244.888-1.956ZM428.435,272.1624c-.714-1.155-2.312-2.045-3.646-.978-.355.355-.534.712-.534.978-.353,1.777,2.4,3.823,3.999,2.49.713-.713.713-1.778.181-2.49ZM419.546,272.1624c-.532-.445-1.509-.623-2.22-.177l-.178.177c-.713.889.887,2.49,2.043,1.422.713-.533.713-1.067.355-1.422ZM405.507,177.3064c.357-2.401.889-3.468,3.288-2.579,2.578.712,8.708,3.289,13.063,6.757,4.176,3.646,6.219,7.112,6.577,8.356.352,1.423,0,2.045-.535,2.224-.534.179-.534.712-.179,1.244.533.355,1.423,1.067,1.066,2.222-.533,1.246-1.421.357-2.308-.978-.8-1.421-3.112-5.777-9.51-9.6-6.307-3.823-9.061-3.823-10.129-4.178-.976-.181-1.689-.802-1.333-3.468ZM396.177,193.1294c.177-2.222,1.245-11.29,1.955-13.512,1.066-3.379,2.841-2.49,3.199-3.468.534-1.246-1.067-1.956-.711-2.845.532-.889,3.11-1.157,2.931,1.956-.177,3.289-.798,7.468-2.221,12.979-1.332,5.602-2.311,8.18-3.556,8.18-1.241,0-1.597-1.068-1.597-3.29ZM408.085,170.1934c.534-1.246,1.421-3.468,2.933-5.868,1.775-2.49,3.818-3.379,5.064-2.845,1.068.534,4.71,3.468,6.399,8.89,1.953,5.424,1.774,7.112,1.599,8.179,0,1.066-.356,1.246-1.599.355-1.157-.712-5.512-3.467-7.998-4.713-2.224-1.066-4.089-1.601-5.688-2.044-1.066-.353-1.066-.888-.71-1.954ZM404.621,165.3034c.353-.532,2.132-2.577,2.753-3.289.887-.711,2.666-1.066,2.841-1.066.357,0-.353,1.246-1.066,1.955-.532.712-2.397,3.469-2.932,4.001-.353.355-.711.355-1.421-.178-.534-.534-.534-.889-.175-1.423ZM387.559,181.8394c.177-1.778,1.154-3.111,2.755-4.355,1.509-1.246,3.999-2.224,5.064-1.69.8.444,1.155,3.111.446,4.001-.446.977-3.999,2.577-5.331,3.111-1.246.357-3.112.534-2.934-1.067ZM393.067,171.6144c.356-.889,2.578-3.022,3.643-4.178,1.246-1.244,2.309-1.599,2.931-2.133.623-.534.623,1.067.357,1.956-.357,1.067-1.332,3.823-2.043,4.535-.713.798-1.246,1.51-3.467,1.51-1.954.002-1.776-.976-1.421-1.69ZM419.904,215.3554c0-.889.532-1.333,1.066-1.333.532,0,.888.444.888,1.333,0,.712-.356,1.244-.888,1.244-.534,0-1.066-.534-1.066-1.244ZM411.727,215.3554c.532-.712,1.776-.889,2.134-.532.532.532.353,1.244-.534,1.776-.888.712-1.777,1.067-2.132.533-.357-.533.532-1.777.532-1.777ZM417.148,211.3554c.178-.801.887-.978,1.155-.712.355.357.355.889,0,1.423-.266.712-.623.533-.977.355-.534-.357-.178-1.066-.178-1.066ZM420.613,208.0644c0-.712,1.245-1.067,1.688-.712.712.178.712,1.067.355,1.777-.445.712-1.332.534-1.866,0-.354-.531-.177-1.065-.177-1.065ZM416.614,204.7754c.353-1.421,1.246-1.778,1.866-1.421.711.355.353,1.244-.179,1.776-.443.712-1.154,1.246-1.511,1.067-.532-.176-.176-1.422-.176-1.422ZM395.199,209.1314c.623-.178,2.577.355,3.467.355.622,0,2.132-.712,4.71.711,3.02,1.69,3.464,2.222,3.02,3.112-.532.889-5.242,4.533-9.686,4.533-4.355,0-6.398-4.358-6.398-5.779.002-1.509,1.511-2.576,4.887-2.932ZM399.021,201.1304c0-1.422,1.245-1.422,2.844-.355,1.511,1.066,4.352,4.712,4.711,5.244.443.712-.357,1.511-1.955.978-1.602-.445-2.578-.978-3.999-2.224-1.156-1.242-1.779-2.042-1.601-3.643ZM388.002,206.0214c-.177-.889.532-1.956,1.956-3.022,1.243-.978,3.109-1.511,3.821-2.045.888-.532,1.598.355,1.066,1.601-.355.978-1.245,4.178-4.176,4.267-1.601.177-2.49-.002-2.667-.801ZM391.38,199.7084c1.688-1.246,2.043-2.133,2.31-4.18.355-2.31.445-5.244.445-6.045.178-1.246-3.466-.889-4.353-.889-1.067.178-2.044.178-2.401.889-.354.889-.711,4.533-.888,6.045,0,.712-.178,6.402,1.688,6.134.71-.175,1.956-1.065,3.199-1.954ZM416.792,193.8414c.534-3.289-.711-5.068-1.599-6.134-.8-1.156-1.332-.978-1.866-.089-.356.978-1.6,1.69-3.112,2.222-1.598.712-3.018-.177-3.819-1.067-.889-.534-1.511.801-1.955,1.868-.622,1.423-2.043,3.823-2.043,5.244,0,2.4,1.066,3.111,2.398,4.356,1.332,1.332,3.465,3.288,4.71,4.532,1.691,1.424,3.112,1.067,3.646,0,1.241-3.643,2.842-7.109,3.64-10.932ZM379.384,237.3134c.355-.532,3.821,1.156,2.222,2.757-1.512,1.687-2.578-2.134-2.222-2.757ZM368.722,238.1144c.888-.978,3.821,1.066,2.488,2.49-1.245,1.333-3.288-1.246-2.488-2.49ZM372.72,235.0014c.889-1.245,3.644,1.955,2.488,2.756-1.065.889-3.11-1.333-2.488-2.756ZM361.257,236.6014c1.42-1.245,4.353.712,2.31,2.223-2.131,1.778-3.642-1.067-2.31-2.223ZM355.038,237.7574c1.065-.978,3.109.355,1.777,1.422-1.421,1.068-2.844-.533-1.777-1.422ZM359.925,243.5364c.888-1.779,3.286,0,1.509,1.421-1.509,1.513-2.399.268-1.509-1.421ZM416.792,236.9584c0-.532.534-.889,1.067-.889.444,0,.976.357.976.889,0,.444-.532.801-.976.801-.533-.002-1.067-.357-1.067-.801ZM425.145,252.8714c.976-1.332,4.531,1.245,2.753,2.311-1.864,1.244-3.996-.889-2.753-2.311ZM419.369,248.6034c1.246-.712,4.353,1.51,2.932,2.579-1.331,1.066-4.089-1.779-2.932-2.579ZM417.68,254.6484c1.155-1.067,4.976,1.423,3.288,2.401-1.599,1.244-4.531-1.334-3.288-2.401ZM400,252.0714c1.865-3.468,4.441,2.934,3.019,4.446-1.154,1.42-4.885-.802-3.019-4.446ZM412.439,248.7804c.532-.711,3.819.446,2.754,1.868-.979,1.423-3.109-1.245-2.754-1.868ZM404.441,248.8714c0-.978,3.82-2.224,3.999.355,0,2.49-.355,2.49-1.864,2.133-1.78-.357-2.314-1.421-2.135-2.488ZM394.845,246.2924c.977-1.246,6.486,0,4.353,2.49-2.31,2.402-2.488.266-3.554-.355-.977-.713-.799-2.135-.799-2.135ZM370.499,249.0484c.888-1.332,4.709,1.245,2.932,2.311-1.689,1.244-3.821-1.066-2.932-2.311ZM375.74,253.0494c.624-1.51,5.688,1.244,4.176,2.311-1.42.889-5.064-.712-4.176-2.311ZM390.491,248.4254c1.689-2.133,4.976,2.757,3.288,4.267-1.601,1.601-5.066-2.045-3.288-4.267ZM362.145,248.7804c1.778-1.244,6.577.978,3.999,2.934-2.576,1.69-5.508-1.776-3.999-2.934ZM367.922,253.7594c.8-1.067,4.621,1.601,3.465,2.934-1.422,1.244-4.532-1.868-3.465-2.934ZM354.86,251.1824c1.6-3.646,4.355-3.289,2.932.889-1.155,4.178-4.353,2.577-2.932-.889ZM365.434,232.0674c-.711.8,1.066,3.202,2.132,2.401.624-1.333-1.422-3.111-2.132-2.401ZM387.381,233.5794c-1.066-.8-2.489-1.69-4.353-2.579-2.844-1.333-2.933-.712-4.353-.532-1.245.177-3.467-.178-3.287.711.354,1.868,10.484,4.178,11.641,4.356,2.755.355,2.577-.355,1.509-1.067-.359-.177-.713-.532-1.157-.889ZM404.621,233.4904c-.712,0-1.245.446-1.245,1.156,0,.532.711,1.244,1.245,1.244.711,0,1.245-.712,1.245-1.244-.002-.801-.447-1.156-1.245-1.156ZM410.04,231.8894c-2.4,0-2.309,4.001,0,4.001,2.219,0,2.399-4.001,0-4.001ZM354.325,245.5804c.178-.355.355-.623.355-1.333-.089-1.6-1.775-1.689-2.488-.711-.266.443-.444,1.689-.089,2.044.536.712,1.513.712,2.222,0ZM368.899,245.5804c.888-1.155-2.222-4-3.287-2.578-.532.889,0,2.044.888,2.578.711.533,1.778.712,2.223.178,0,0,.176,0,.176-.178ZM376.364,245.5804c.622-.534.8-2.133.445-2.845-.535-1.601-3.021-1.689-3.732-.445-.623,1.421-.623,2.667-.178,3.289l.532.532c.889.714,2.132.891,2.933-.531ZM383.738,245.5804c-.889-1.155-2.132-3.111-3.376-1.689-.623.711-.623,1.333-.178,1.689.533.89,2.133,1.245,3.376,1.422,1.69.355.8,1.423.977,3.646.178,2.223,1.067,1.955,2.667.534,1.688-1.246-1.777-4.001-2.667-4.712-.356-.178-.533-.533-.799-.89ZM389.958,245.5804c.354-.177.711-.623,1.065-1.155,1.689-2.133-2.31-.712-2.489-1.423-.177-.89-1.509-4.001-2.575-1.868-.889,1.956-.534,3.023.8,4.356l.266.089c.977,1.068,1.688,1.068,2.933.001ZM414.836,245.5804c.535-.177.89-.355,1.069-.623.177-1.421-1.691-2.845-6.043-3.555-4.177-.623-10.396-2.578-13.508-2.933-3.108-.533-5.508-.533-5.685.711-.178,1.244.711,1.067,3.821,2.579,3.109,1.422,9.419,3.2,12.529,3.646.18.088.266.088.355.177h1.066c2.22.355,5.064.533,6.396-.002ZM433.942,245.5804c-.798-1.066-2.4-1.155-3.555-1.867-1.066-.621.266-1.155-.088-2.577-.18-1.423-2.756-.889-4.178-.532-1.509.355-5.864.532-6.219,2.044,0,.712,1.598,1.956,3.464,2.934,2.044,1.333,15.905,9.511,16.35,8.534.353-1.067-2.934-3.289-4.355-4.713-1.42-1.333-1.066-.8-1.066-2.756.002-.355-.177-.71-.353-1.067ZM360.458,269.5834c0-.355.178-.532.532-.532.266,0,.623.177.623.532s-.355.534-.623.534c-.354,0-.532-.178-.532-.534ZM442.4729,264.3394c.887-1.333,3.11,1.066,1.955,1.955-1.423.89-2.666-.711-1.955-1.955ZM431.187,258.8284c1.066-1.246,3.465,2.222,2.133,2.577-1.422.355-3.201-1.333-2.133-2.577ZM435.008,264.2504c1.066-1.067,1.423,1.689,2.756,1.689,1.597,0,2.486,1.424.532,2.134-1.865.623-2.756,0-3.288-1.599-.532-1.424-.89-1.424,0-2.224ZM419.724,265.4054c1.245-1.333,4.71,2.757,3.466,3.646-1.155,1.066-4.887-2.222-3.466-3.646ZM428.254,265.2284c.89-1.511,6.043.711,3.465,2.934-2.575,2.31-4.353-1.511-3.465-2.934ZM424.255,260.8724c.89-1.155,1.777-3.288,2.754-.532,1.245,3.022.532,4-2.577,3.2-3.285-.889-2.576-1.601-1.953-2.49.711-.712,1.066.887,1.776-.178ZM414.214,259.3604c2.044-1.601,4.977,2.934,3.287,4.178-1.596.978-5.417-2.488-3.287-4.178ZM411.018,264.3394c1.243-1.69,3.998,2.667,3.198,4-.889,1.244-4.354-2.222-3.198-4ZM404.974,267.7164c2.225-2.668,6.223,2.401,3.821,4-2.22,1.513-6.042-1.244-3.821-4ZM405.33,258.8284c1.066-1.956,5.688,2.934,3.642,4.178-2.132,1.333-4.71-2.313-3.642-4.178ZM399.021,261.4054c1.245-2.222,5.6,2.667,3.199,4.712-2.4,2.222-4.621-2.401-3.199-4.712ZM391.557,260.6934c.623-.8,4.087,1.956,2.756,2.845-1.424.801-3.29-1.956-2.756-2.845ZM379.916,267.1844c2.933-2.845,2.933,1.51,1.333,2.577-1.333.889-4.353.177-1.333-2.577ZM370.853,269.7614c.889-.89,2.933,0,1.69,1.423-1.156,1.155-2.756-.534-1.69-1.423ZM366.144,267.1844c.888-1.246,2.755.711,1.955,1.332-.888.89-2.844-.177-1.955-1.332ZM371.565,263.8954c.978-1.779,4.353.978,2.932,2.399-1.422,1.245-3.998-.889-2.932-2.399ZM379.384,260.8724c.8-1.333,3.11.178,2.044,1.244-1.067,1.067-3.11.355-2.044-1.244ZM374.32,257.7594c.532-.532,3.998,1.246,2.576,2.49-1.333.978-4.621-.889-2.576-2.49ZM365.789,259.5384c.532-.712,5.598,1.155,3.998,2.577-1.331,1.423-3.466,1.601-3.998.356-.532-1.244-.711-2.399,0-2.933ZM359.393,262.1164c1.065-1.244,3.82,0,2.397,1.779-1.511,1.688-3.466-.357-2.397-1.779ZM451.1799,278.6513c1.066-1.246,2.752,1.51,1.42,1.867-1.42.357-2.488-.71-1.42-1.867ZM436.0719,277.5843c.712-.889,3.999,1.956,2.578,2.756-1.154.89-3.287-1.689-2.578-2.756ZM439.1839,273.4064c0-.532.534-.889,1.066-.889s1.067.355,1.067.889-.535.889-1.067.889-1.066-.356-1.066-.889ZM429.676,277.0523c2.222-1.067,3.819,1.956,1.864,2.31-2.041.446-4.351-1.421-1.864-2.31ZM420.97,278.2963c1.688-.712,2.932.177,1.331.889-1.331.623-3.287-.355-1.331-.889ZM424.434,282.2963c1.6-.889,3.466.712,2.222,1.69-1.156,1.067-3.823-.801-2.222-1.69ZM410.394,275.1853c1.156-1.422,2.756.8,1.333,1.867-1.333.889-2.755-.535-1.333-1.867ZM373.075,274.4734c2.665-3.289,4.176.889,1.954,2.222-2.309,1.423-4.53,1.246-1.954-2.222ZM367.211,273.7633c.533-.534,1.867,1.244,1.245,1.599-.713.355-1.601-.889-1.245-1.599ZM412.971,257.2274c1.69-1.69-2.309-4.979-3.999-3.111-1.421,1.246.534,3.288,2.225,3.645.71-.002,1.242-.002,1.774-.534ZM395.022,255.3604c-1.776,1.689-1.689,2.577.355,3.823,4,2.133,2.045-6.225-.355-3.823ZM390.58,257.2274c.443-1.333-1.512-3.023-2.578-2.402-.8.535-.266,2.224.711,2.934.713.357,1.601.268,1.867-.532ZM363.39,257.7594c.178-.355.178-.532.356-.889.711-1.69-2.31-2.579-3.11-1.155-.532.711-.711,1.333-.532,2.044,0,.355.177.533.354.889.355.712,1.864.357,2.932-.889ZM364.634,296.8773c-1.333,0-1.421-1.779,0-1.779,1.244,0,1.51,1.779,0,1.779ZM397.244,319.4563c1.065-1.244,2.576,1.601,1.244,1.956-1.244.268-2.489-.71-1.244-1.956ZM384.715,314.5663c2.489-.8,3.021,3.023,1.067,3.289-2.044.534-3.465-2.22-1.067-3.289ZM367.032,317.2343c2.399-.889,3.467,3.645,1.422,4-1.956.446-3.82-3.022-1.422-4ZM371.387,312.3443c2.222-1.067,3.821,1.867,1.69,2.4-1.867.356-4.178-1.333-1.69-2.4ZM376.719,317.5893c2.309-1.067,3.82,1.867,1.777,2.224-1.955.532-4.176-1.424-1.777-2.224ZM446.647,318.3893c0-1.333,1.955-.8,1.777.355-.179,1.246-.356,1.956-.711,1.956-.532.002-1.241-.887-1.066-2.311ZM441.9389,316.5243c0-1.956,2.31-3.646,2.489-1.601,0,2.133-.179,3.468-.357,4.712-.177,1.244-1.598.889-1.598-.355,0-1.068-.534-1.068-.534-2.756ZM378.141,310.7453q0-.177.177-.355c.355-.8,2.221-.445,3.288.355.888.712,1.245,1.778,0,2.845-2.222,2.045-3.821-1.067-3.465-2.845ZM369.787,329.5033c0-.266.355-.8,1.066-.8.532,0,1.066.532,1.066.8,0,.533-.532.889-1.066.889-.711-.001-1.066-.356-1.066-.889ZM394.667,325.8583c0-.355.355-.801.977-.801.533,0,1.066.446,1.066.801,0,.532-.533.889-1.066.889-.622,0-.977-.357-.977-.889ZM378.141,327.8143c2.398-1.067,2.576,1.244.532,1.51-1.954.534-2.755-.444-.532-1.51ZM403.553,323.9913c2.311-1.067,3.821,1.867,1.954,2.399-2.131.357-4.355-1.333-1.954-2.399ZM414.038,330.0363c.798-.801,3.288,3.645,1.511,4.355-1.688.889-2.578-3.466-1.511-4.355ZM388.179,319.4563c.712-1.599,5.954.889,3.376,2.934-.888.889-1.865,1.155-2.844.177-.796-.798-1.064-2.133-.532-3.111ZM381.606,321.2343c2.399-1.066,2.132,2.49.356,2.934-2.578.357-2.223-2.045-.356-2.934ZM372.098,322.2123c2.309-1.155,3.109,2.845.977,3.2-2.222.446-2.933-2.222-.977-3.2ZM423.722,345.1483c3.644-.978,3.11,1.601,1.776,2.311-.886.357-4.351-1.599-1.776-2.311ZM426.655,350.2173c1.245-.355,1.955,2.755,1.066,3.112-.889.354-3.641-2.579-1.066-3.112ZM435.54,349.3263c1.246-.355,4.355,4.001,2.225,4.535-1.868.357-4.622-3.823-2.225-4.535ZM418.835,353.3273c-1.332-1.69,1.955-4.178,3.023-2.755.798,1.422-1.422,4.711-3.023,2.755ZM407.019,348.7943c-1.332-1.69,2.666-4.446,3.643-3.111,1.777,2.133-1.867,5.067-3.643,3.111ZM416.614,345.5053c2.398-.889,4.176,2.133,1.421,2.934-2.841.71-3.642-1.867-1.421-2.934ZM323.226,350.0383c0-.532.355-.889.889-.889.712,0,1.067.357,1.067.889s-.357.889-1.067.889c-.534,0-.889-.355-.889-.889ZM443.894,352.6173c0-.444.355-.801,1.066-.801.444,0,.978.357.978.801,0,.355-.534.889-.978.889-.711,0-1.066-.534-1.066-.889ZM400.622,348.9713c0-.532.532-.8,1.064-.8.713,0,1.069.267,1.069.8,0,.535-.355.89-1.069.89-.534,0-1.064-.355-1.064-.89ZM362.145,352.7943c0-.533.355-.8,1.066-.8.533,0,1.067.266,1.067.8,0,.535-.532.889-1.067.889-.711,0-1.066-.356-1.066-.889ZM365.255,347.2823c0-.355.355-.89,1.066-.89.534,0,.888.533.888.89,0,.532-.354.889-.888.889-.709,0-1.066-.355-1.066-.889Z" style="fill: #fff;"/>
  <path d="M399.288,179.0834c0-.533.353-.889.798-.889.534,0,.887.355.887.889s-.353.889-.887.889c-.443,0-.798-.355-.798-.889ZM390.669,179.7954c0-.535.532-.89.977-.89.532,0,.889.355.889.89,0,.443-.355.978-.889.978-.445,0-.977-.535-.977-.978ZM423.545,187.6184c0-.532.357-.889.889-.889.355,0,.889.357.889.889,0,.446-.534.8-.889.8-.532,0-.889-.356-.889-.8ZM418.212,182.7284c0-.532.446-1.066.979-1.066s.888.532.888,1.066c0,.535-.355.89-.888.89s-.979-.355-.979-.89ZM411.55,178.5504c0-.532.534-.889,1.068-.889s.886.355.886.889c0,.535-.352.89-.886.89s-1.068-.357-1.068-.89Z"/>
  <path d="M378.407,591.7591l112.0479,3.735c3.555.088,3.02-1.6,1.954-4.09l-3.199-7.113c-.888-2.222-2.667-3.2-4.975-3.289l-108.6719-5.333c-3.821-.178-3.466,2.044-2.844,4.801l1.69,7.468c.798,2.4871.886,3.731,3.998,3.821ZM369.254,587.4022l-1.69-7.289c-.8-3.646-1.688-4.624-5.598-4.178l-28.079,3.466c-2.754.355-4.353,2.309-4.621,5.158l-.711,6.668c-.355,3.5551.445,4.178,3.999,3.821l34.031-3.734c2.936.088,3.114-1.69,2.669-3.912ZM369.965,616.6511l-4.265-15.735c-.888-3.555-1.422-4.624-5.242-4.178l-37.143,4.355c-2.753.266-3.021,1.424-3.644,3.646l-3.021,18.046c0,2.313.09,3.647,3.287,3.289l47.2729-4.799c3.466-.357,3.732-.98,2.755-4.624ZM372.453,625.6301l-58.556,6.045c-2.223.266-2.4.714-2.489,2.845-.089,2.132.889,2.045,2.576,1.956l59.978-4.98c2.754-.353,3.732.534,3.555-2.668-.089-.532-.089-1.065-.178-1.51-.175-2.666-2.753-1.778-4.886-1.688ZM505.2029,600.9141l-131.8599-4.444c-3.644-.089-3.201,1.776-2.49,4.534l4.531,16.891c1.066,2.668,1.154,2.755,4.265,2.844l133.6399,3.202c2.576.088,2.576-.978,1.776-3.023l-5.156-14.312c-.973-2.579-1.33-5.602-4.706-5.692ZM515.2439,631.3181c1.245-1.157,2.311-2.0439-.088-2.399l-130.0869-3.111c-1.865.177-2.752.177-2.488,2.577.357,3.022-.355,2.669,2.843,2.669l125.9989,1.954c2.4,0,2.222-.179,3.821-1.69ZM295.1491,642.2531c1.421,1.424,1.509,1.333,2.932.444l6.753-3.912c1.155-.887,1.246-.798,1.51-2.222-.089-1.601.266-2.579-1.689-1.5099l-8.885,4.9759c-1.245.712-1.867.8911-.621,2.224ZM282.6191,628.8281c2.132,2.402,4.265,4.801,6.485,7.114.889.978,1.867,1.067,3.11.445l14.396-8.091c3.198-2.045,4.176-1.424,4.887-4.533l2.666-16.183c.533-3.289-1.597-2.045-3.11-.976l-27.811,18.046c-2.221,1.513-2.667,1.958-.623,4.178ZM320.739,585.1801c-15.461,10.225-30.833,20.446-46.294,30.673-1.778,1.244-1.689,1.421-.177,3.377,1.865,2.133,2.22,4.089,4.709,2.4l37.675-24.269c2.489-1.601,6.399-1.333,6.931-5.245l.355-4.178c.266-2.667.354-5.158-3.199-2.758ZM396.71,563.8431c0-1.512-.888-2.756,2.488-6.757,3.02-4,7.375-10.045,13.595-10.045,1.69,0,2.577,1.157,2.223,2.044-.18,1.069-1.155,2.224-.623,4.712.623,2.402,4.976,9.159,7.818,11.29,2.755,2.226,6.933,4.714,11.554,5.5149,1.332.264,4.087,1.687,2.307,3.109l-39.184-1.954c-4.62-.891-.178-5.956-.178-7.914Z" style="fill: #fff;"/>
  <path d="M456.955,450.2292c.8-11.29,1.689-23.025,1.866-34.403,0-2.757-2.398-1.603-4.711,0-2.043,1.421-3.287,2.044-3.464,4.353v20.803c0,17.159-.356,34.139-.978,51.206-.266,6.845-.621,13.602-.621,20.447v3.112c0,3.288.264,6.402.442,9.069.267,4.977.533,7.822-2.308,12.445-2.753,4.356-7.819,6.4-10.575,7.289-2.841.89-6.13,1.422-8.174,3.646-2.134,2.311-4.712,2.133-7.819,2.668-3.112.443-3.287,2.754-2.401,4.264.8,1.603,5.331,7.203,9.863,10.314,4.533,2.932,5.69.712,9.419,3.111,2.666,1.777,3.82,4.267,5.155,5.4239l6.221.353c.354-.443.354-1.333.532-2.843.266-1.601.979-19.825,2.044-35.381.979-15.203,2.043-30.405,3.022-45.608.888-13.421,1.597-26.844,2.487-40.269Z" style="fill: #fff;"/>
  <path d="M468.6829,88.583h-98.184l50.559,49.161,9.773-10.1343-8.441-7.8234,17.149-17.0686,15.817-.3549,13.327-13.7798ZM421.679,102.8065l-8.529,8.6239-9.063-8.4464,17.592-.1775ZM198.9171,146.3678v60.2746l12.351,12.002v-19.559l78.5499,74.1439,10.573-10.846-89.1229-85.3449v-17.957l-12.351-12.7136ZM198.9171,335.9923v31.026l39.896-41.072-39.896,10.046ZM300.1251,88.583h-55.9809l116.8469,111.2144,10.574-10.935-47.361-45.1622,1.067-1.5991,65.93,26.5813,9.951-10.402-67.7959-28.36.446-.8873s4.709-8.8902,0-13.9573c-4.533-5.0671-15.64-15.7357-19.372-19.3812-3.465-3.6455-9.33-6.8455-14.305-7.1117ZM282.1761,103.3407c3.464-.1775,8.708-.5324,11.906-.5324,4.977,0,8.708,1.4234,10.93,3.3775,2.132,1.7784,11.729,11.0234,13.327,12.3581,1.689,1.4235,2.756,4.178.178,7.2005-1.955,2.3108-5.065,4.8897-6.485,6.3113l-29.856-28.715ZM353.616,88.583h-21.327l71.175,67.2985,9.863-10.2253-59.711-57.0732ZM211.2681,125.2102v-26.9366l119.9559,114.4138-13.062,13.78-106.8939-101.2572ZM222.0191,88.583h-23.102v45.5173l117.8239,111.3031,32.965-34.226-127.6869-122.5944ZM198.9171,220.2454v21.958l62.821,59.386,10.663-10.669-73.4839-70.6749ZM198.9171,256.9594v19.381l29.678,27.205-29.678,7.821v14.226l55.447-15.736-55.447-52.897Z"/>
</svg>